<svg id="Camada_1" data-name="Camada 1" xmlns="http://www.w3.org/2000/svg" viewBox="0 0 512 512"><defs><style>.cls-1{fill:#043242;}</style></defs><title>solar</title><path class="cls-1" d="M110.85,492.29c-.66-1.56-2.38-1.33-3.52-2.06l-1.81-5c1.11-1.18.33-3.28,1.61-4.6l4.51-2.32h68.48a2.42,2.42,0,0,0,.33-.31.77.77,0,0,0,.16-.4c0-7.28,0-14.57,0-21.78.73-2.33,2.56-3.73,4.26-5.51h55.83l1.22-1.22V411.74l-1.23-1.22H72.29c-1.53-1.71-3.37-2.91-4.23-5,0-10.06,0-20.11,0-30.16,0-2.07,1.45-4,.91-6.13,1.66-1.93,1.19-4.52,1.63-6.71s.91-4.41,1.36-6.51c.73-3.35,1.37-6.79,2.34-10.13a52.62,52.62,0,0,0,1.15-6.05,109.61,109.61,0,0,1,2.62-11.48c.51-1.83.49-3.76.89-5.62.46-2.1,1.64-4.24,1.17-6.54,2.07-1.45-.26-4.32,1.86-5.74-.55-4,1.64-7.45,2-11.31a57.92,57.92,0,0,1,1.93-9.88c.88-3.18.58-6.73,2.59-9.6-.17-3.9,1.35-7.52,1.92-11.31.51-3.45,1.46-6.84,2.22-10.25.46-2.11,1-4.32,1.24-6.38s1.61-3.94,1.13-6.1c2-1.49-.17-4.27,1.78-5.78-.26-2.12.66-4.06,1-6.09.65-3.88,2-7.63,2.49-11.49s1.6-7.79,2.36-11.66c1-5.39,1.73-10.92,3.93-16.66L110,191H415.52l2.72,3.4.39-.37c.43,2,.37,4.32,1.43,5.88,1.21,1.8-.59,4.14,1.49,5.47-.06,3.58,1.19,6.93,1.82,10.39.92,5,1.85,10.13,3,15.07s1.94,9.94,3.34,14.83a73.11,73.11,0,0,1,1.63,7.71c.44,2.61.83,5.29,1.48,7.79.87,3.35,1.42,6.79,2.39,10.13a22.61,22.61,0,0,1,1.07,6c0,2.16,1.69,3.94,1,6.12,2.08,1.33.17,3.71,1.53,5.45,1.11,1.43.6,3.68,1,5.54a61.15,61.15,0,0,1,1.33,6.52,39.23,39.23,0,0,0,1.5,5.82,35.33,35.33,0,0,1,1.08,6.07c.33,3.68,2.19,7,2.07,10.79,1.31.89.8,2.26.72,3.39-.09,1.3,1.36,2,1,3.35-.56,2.14,1.55,3.93.9,6.12,2.07,1.32.19,3.7,1.54,5.44,1.11,1.42.61,3.68,1,5.54a60.83,60.83,0,0,1,1.33,6.53c.2,1.87.24,4.11,1.7,5.75-.22,3.91,1.09,7.6,1.95,11.3,1.31,5.62.68,11.23.81,16.85s0,11.47,0,17.15c-.75,2.3-2.55,3.73-4.2,5.39H435.13q-73.71,0-147.42,0c-1.59,0-3.47-.71-4.69,1.35v37.32c.75.65,1.19,1.41,2.36,1.35,2.63-.14,5.27-.05,7.91-.05h46.89c1.46,1.62,3.3,2.83,4.16,4.95V478.2H413.5a8.68,8.68,0,0,0,4.08,2.16l1.83,4.93-1.74,4.85c-1.17.86-2.92.58-3.57,2.15Zm-28.74-96H442.85V382.63H144.48q-6.71-2.92-5.72-8.44c1.77-4.81,5.22-5.63,9.16-5.63q19.08,0,38.14,0h7.85c-1.2-4.82,1-9.12.73-13.71-.34-6.39,1.52-12.72.86-19.15a1,1,0,0,1,0-.46c1.89-3.93.45-8,1-12.16h-103c-2.15,4.73-2.43,9.88-3.59,14.82-1.2,5.1-2.36,10.23-3.21,15.41-.82,5-2.88,9.82-2.86,15.18H116a12.41,12.41,0,0,1,5.91,4.29v5.67c-1.63,1.48-2.86,3.3-5,4.17H82.11Zm125.4-27.89H317.36v-1.94a51.9,51.9,0,0,1,0-5.58c.22-2-1.15-3.59-1.08-5.66.11-3.74.44-7.48-.68-11.28-.75-2.57-.38-5.56-.07-8.32s-1.4-5.22-1-8a33.81,33.81,0,0,0,0-4.5c-15.67-.65-100.11-.39-104.36.34,1,4.11-1,8.06-.73,12.13.41,7-1.66,14-1,21a1.78,1.78,0,0,1,0,.92C206.59,361,208.1,364.7,207.51,368.42Zm123.92,0H441.14c-.06-5.35-2.11-10.16-2.91-15.2S436.1,343,435,337.84c-1.07-5-1.56-10.06-3.52-14.76H328.39c.58,4.27,0,8.37.86,12.65.95,4.83.62,9.94.91,14.92C330.5,356.54,331.39,362.4,331.43,368.41Zm-120-59.5h102c1.24-2.17-.65-3.79-.69-5.7-.08-4.21.67-8.5-.89-12.62.69-7.19-1.32-14.27-.93-21.45.11-2,.07-3.89-1.3-5.61H215.67c-1.39,1.52-1.57,3.21-1.61,5.05a72.72,72.72,0,0,1-.69,11.27c-.89,4.85-.13,9.92-1,14.93-.71,4.12.31,8.47-1,12.61A5.21,5.21,0,0,0,211.41,308.91Zm112.72-45.33c-1.16,2.54.61,4.52.7,6.73.17,4.52-.73,9.12.9,13.55-.6,7.5,1.53,14.88.95,22.38,0,.56-.31,1.24.34,1.76l1,.95c27.7.66,96.75.38,100.93-.39-3.16-14.95-6.31-29.9-9.49-45Zm-122.9,0H105.54c-3.2,15.19-6.37,30.22-9.56,45.37H196.46a2.58,2.58,0,0,0,1.86-2.79c.21-4.21-.77-8.51.9-12.62-.68-7.35,1.31-14.58.94-21.92,0-1.06-.35-2.49.2-3.13C201.72,266.92,200.65,265.3,201.23,263.6ZM216,249.5h93.11c-.4-4.18,0-7.88-.83-11.7-1-4.67.49-9.7-1.11-14.44.63-6.11-1-12.08-1-18.08l-1.26-1.36H224.4a25.16,25.16,0,0,1-3.25,0c-1.16-.15-1.6.71-2.39,1.41a45.37,45.37,0,0,0,0,4.94c.19,1.72-1.07,3-1.06,4.72,0,3.9.46,7.79-.69,11.74-.76,2.57-.38,5.56-.08,8.31s-1.35,5.22-1,8A60.29,60.29,0,0,1,216,249.5Zm-107-.16h93a25.61,25.61,0,0,0-.06-4.74c-.35-1.81,1.06-3,1.07-4.74,0-4.52-.27-9,.7-13.59.9-4.22-.1-8.69.95-13.09.69-2.89.13-6.08.13-9.19H118.69c-.29.28-.65.47-.7.72-3.15,13.75-5.57,27.66-9,41.36A14.2,14.2,0,0,0,109,249.34Zm214.16.16h93.28L407,204.38c-.51-.93-2.17-.45-3.66-.45H320.15v2.13a39.1,39.1,0,0,1-.07,6c-.32,2.08,1.1,3.64,1.09,5.66,0,3.9-.85,7.91.84,11.7C321.52,236,322.69,242.5,323.15,249.5ZM194.66,478.19H330.38c0-2.44,0-4.74,0-7a46.63,46.63,0,0,0-.13-6.62H194.66Zm75.18-67.6H255.18c-.54,14.13-.35,36,.31,39.68h14.35Z"/><path class="cls-1" d="M233.11,108.07a79,79,0,0,1-4.57-10.95c-.5-1.56-.24-3-.48-4.44-.21-1.29.71-2.86-1.19-3.7a8.39,8.39,0,0,0,1.24-4.37c-.08-6.42,2.8-11.8,6.38-16.85.8-1.12,2.53-1.91,2.72-3,.3-1.73,1.91-1.11,2.51-2.17,1.63-2.9,5-3.69,7.51-5.46a17,17,0,0,1,8.51-2.82c6.88-.36,14-1,20.45,2.12a34.86,34.86,0,0,1,9.48,6.39c3.74,3.73,6.13,6.47,8.44,11.35,1.65,3.47,3.13,7,2.78,10.94a3.87,3.87,0,0,0,1,3.36c-1.68,2.32-.53,5-1.08,7.48a45.82,45.82,0,0,1-2.51,6.85c-.92,2.29-1.62,4.79-3.64,6.37s-2.4,4.43-5,5.55c-2.32,1-3.47,3.7-6,4.59s-4.85,1.76-7.21,2.8-5,.88-7.53.91c-2.38,2.61-4.72-.47-7.14-.06s-4.78-1.1-7.16-1.66-4.49-2-6.7-3-3.93-3.14-5.93-4.67S235,109.43,233.11,108.07Zm50.77-19.43c.28-3.65-1.29-7-2.88-10.26-1.77-3.59-4.93-6.13-8.19-8.4-1.31-.91-8.9-2.93-10.45-2.79-5.66.55-11,2.29-15,6.39-3.76,3.93-6.3,8.87-6.29,14.53,0,12.31,9.3,21.72,21.24,21.76S283.3,100.7,283.88,88.64Z"/><path class="cls-1" d="M213.75,35.55h4.76c4.38,3.72,9.56,7,11.13,13.31.34.66-.66.73-.65,1.31v1.55l-3.38,2.9c-.73.81-2.31-.27-2.65,1.47-1.43-.3-2.27-1.58-3.73-1-3.17-3.62-7.25-6.44-9.76-10.73V39.72Z"/><path class="cls-1" d="M311.51,35.75l3.88,3.87v4.91C313,48.65,309,51.36,306,54.89c-1.18.26-2.47,0-3.26,1.12-1.28.14-1.89-1.93-3.32-.68l-3.6-4c-.12-.31.81-1.69-.78-2,.26-.7,1-.86,1-1.61A6.44,6.44,0,0,1,298.25,43c1.22-1.19,2.49-2.33,3.59-3.61C304.36,36.45,307.35,34.8,311.51,35.75Z"/><path class="cls-1" d="M229,131.94c-3.74,3.17-6.43,7.23-10.63,9.6-3.71.25-7.34.33-9.1-5.69-.55-2.44,1.08-5.47,4.11-7.94a8.18,8.18,0,0,0,1.31-1.32c2.85-3.62,6.42-5.45,11.27-4.32l2.8,2.8c.66.83-.34,2.24,1,2.87C228.7,129,229,130.35,229,131.94Z"/><path class="cls-1" d="M294.91,128.08c1.4-.75,1-1.78,1.1-2.84l3.49-3.18c.9,0,2.13,0,3.36,0a6.17,6.17,0,0,1,4.78,1.93c1.33,1.3,2.55,2.73,4,3.92,3,2.53,4.64,5.52,4.09,8-1.76,6-5.39,5.94-9.12,5.69-4.16-2.4-6.88-6.41-10.35-9.39C295.52,130.84,296.68,129.19,294.91,128.08Z"/><path class="cls-1" d="M256,142.07c5.35-6.1,8.48-5.08,12.92-.11v15c-.32,2.21-2.71,2.4-3.91,4h-5c-.86-.54-1.2-2.11-2.74-1.71-.37-1.4-1.38-2.33-1.34-3.8C256,151,256,146.54,256,142.07Z"/><path class="cls-1" d="M192,94.11c-3-7-3-7,2.09-12H208.9c5.84,4.84,5.59,8.33-.1,13.13C203.38,94.53,197.71,96.05,192,94.11Z"/><path class="cls-1" d="M330.85,82.06c5,5,5,5,2.23,11.72-.66.57-1.79.33-2.23,1.3H316.07c-5.72-4.7-5.74-8.19-.07-13Z"/><path class="cls-1" d="M256,35.07V20.2c5.43-6.15,8.53-5,13,0V34.84C264.67,40.52,261,40.9,256,35.07Z"/></svg>