<svg id="Camada_1" data-name="Camada 1" xmlns="http://www.w3.org/2000/svg" viewBox="0 0 512 512"><defs><style>.cls-1{fill:#043242;}</style></defs><title>tower</title><path class="cls-1" d="M254.68,14a80,80,0,0,1,6.24,6.82q25,34.28,49.75,68.68a23.58,23.58,0,0,0,7.5,6.83c29.86,17.28,59.63,34.72,89.51,51.94,4.42,2.55,6.52,5.61,6.31,10.86-.36,8.73-.17,17.49-.08,26.24,0,4.61-1.83,7.83-6.58,7.95s-6.85-3.23-6.91-7.7c-.1-7.33,0-14.66,0-22.45H317.61v45.94l43.2,25.19c15.78,9.2,31.53,18.46,47.38,27.51,4.15,2.37,5.94,5.39,5.78,10.22-.29,8.89-.1,17.8-.08,26.71,0,4.31-1.58,7.42-6.27,7.7-5,.29-7.05-2.91-7.17-7.35-.18-7.46-.05-14.94-.05-22.84H317.31c.54,24.12-1.43,47.73,6.58,71.39,15,44.28,27.74,89.33,41.47,134.05,1.24,4.05,2.42,8.1-2,10.85s-7.53-.26-10.53-3.22Q305,442,257.12,394.8c-1.31-1.29-2.67-2.52-5-4.69-6,6.34-11.71,12.55-17.67,18.46q-40.92,40.59-82,81.05c-2.91,2.88-5.89,5.56-10.19,2.95s-3.46-6.43-2.24-10.38q12.63-41.15,25.15-82.32c1.5-4.94,4-8.71,9.58-6.77,5.44,1.88,4.69,6.42,3.28,11-5.86,18.87-11.58,37.78-18,58.7L239.62,380l-41.18-42.3c-3.55,11.56-7.07,22.84-10.46,34.16-1.37,4.58-3.39,8.73-8.94,7.23-5.85-1.58-5.56-6.26-4-11,1.22-3.7,1.93-7.6,3.47-11.16,10.9-25.12,10.65-51.6,9.8-78.17a24.53,24.53,0,0,0-.4-2.56H105.24c0,7.19,0,14.15,0,21.11,0,4.72-.84,9.17-6.81,9.16s-6.78-4.27-6.72-9.12c.1-8.28.28-16.57-.07-24.83-.22-5.21,1.75-8.33,6.22-10.9,28.41-16.36,56.7-32.92,85-49.41,1.74-1,3.46-2.07,5.26-3.15V163.12h-82.9c0,7.15,0,14.12,0,21.1,0,4.86-1.25,9.16-7,9.08-5.39-.08-6.66-4.06-6.58-8.88.14-8.74.24-17.5,0-26.24-.16-4.77,2-7.4,5.9-9.63C127.82,131,158,113.38,188.24,95.84a19.51,19.51,0,0,0,6.16-5.59q25.08-34.76,50.3-69.42A80.14,80.14,0,0,1,250.93,14Zm-2,131.94,38.67-40.09c-.62,0-2.13-.15-3.64-.15q-19,0-37.95,0c-4.66,0-7.76-2.16-7.78-6.8,0-4.46,3.16-6.54,7.46-6.73,2.49-.11,5,0,7.5,0h39l-43.18-59.6-42.66,58.9c6.44,2,15.65-2.52,16.73,6.74,1.14,9.8-8.48,6.58-12.58,7.6ZM343.47,461.8l1.42-1.06L307,337l-41.9,43.36ZM252.85,278l-39.23,40.53H292Zm-50.59-81.61,38.52-39.84-38.52-40Zm101.07-80.95-38.44,39.92,38.44,39.9Zm-101.17,193,38-39.28-38-39.5ZM303.45,228.5,265.4,267.82,303.45,307Zm-50.12-62.64-38,39.1H291Zm-38,53.33,37.34,38.7,37.59-38.7Zm74.36,113.69H215.86l36.94,38.31Zm27.77-70.79h64.27l-64.27-37.42Zm-193.49,0h63.9V224.83Zm193.51-113.3h64.1l-64.1-37.31ZM188.12,111.48l-64,37.3h64Z"/></svg>