<svg id="Camada_1" data-name="Camada 1" xmlns="http://www.w3.org/2000/svg" viewBox="0 0 512 512"><defs><style>.cls-1{fill:#043242;}</style></defs><title>transmission</title><path class="cls-1" d="M500,242.6c-2.56,8.34-6.87,15.08-16.85,13.27-10.38-1.88-11.86-10.17-11.93-19.07C470.4,132.47,379.8,41.87,275.46,41.06c-10.24-.08-19.6-2.52-19.14-14.71s9.76-13.83,20.12-13.21c126,7.55,214.71,95.62,222.59,221.12a48,48,0,0,0,1,5.52Z"/><path class="cls-1" d="M191,299.91l34.94-35.29c-10.11-27.48-4.72-51.16,23.27-66,18.46-9.8,41.75-4.75,55.79,10.08a49.42,49.42,0,0,1,7.73,56.71c-11.64,21.79-28.43,27.07-65.38,20.84-11.7,11.63-23.2,23-35.07,34.82,1.45,1.62,2.9,3.42,4.52,5q41.67,41.73,83.37,83.43c15.53,15.61,14.13,34.31-3.37,47.42-70.34,52.73-167.1,46.4-227.4-14.89C7.89,379.55,2.61,283.67,56.81,213.47c11.72-15.18,31-16.12,45.37-1.89q42,41.73,83.77,83.69C187.59,296.91,189.37,298.42,191,299.91ZM79,230.34c-28.89,37.27-39.52,79.5-27.2,125.5,15.53,58,53.93,94.2,112.76,106.5,43.53,9.1,83-2.07,117.4-29.1Zm191-8.91c-12.34,1.54-20.42,8-20.48,20.78s7.49,20.47,20.2,20.61c12.94.14,20.71-7.64,20.77-20.52S282.36,223,269.9,221.43Z"/><path class="cls-1" d="M435.81,236.69c1,9.08-.48,18.94-13.14,19.25-12.86.32-14.34-9.73-14.59-20.15-1.65-69.15-62.56-130-131.74-131.6-10.24-.24-20.13-1.74-20-14.26.11-13.06,10.23-13.77,20.66-13.53C361.22,78.35,434,151.08,435.81,236.69Z"/><path class="cls-1" d="M372.82,238c.95,10.07-2.49,17.8-13.4,18-10.59.18-14-7.43-14.26-17.14-1-37.94-33.76-70.71-71.67-71.74-9.7-.26-17.34-3.6-17.23-14.19.12-10.94,7.86-13.86,17.9-13.59C326.93,140.76,371.6,185.3,372.82,238Z"/></svg>