<svg id="Camada_1" data-name="Camada 1" xmlns="http://www.w3.org/2000/svg" viewBox="0 0 512 512"><defs><style>.cls-1{fill:#043242;}</style></defs><title>MOD_conduit</title><path class="cls-1" d="M227.62,396.2a18.86,18.86,0,1,0-37.71-.24,18.63,18.63,0,0,0,18.89,18.79A18.82,18.82,0,0,0,227.62,396.2Z"/><path class="cls-1" d="M140,308.54a19.14,19.14,0,0,0-18.83-19.06,18.93,18.93,0,0,0-18.88,18.89,18.6,18.6,0,0,0,18.92,18.75A18.83,18.83,0,0,0,140,308.54Z"/><path class="cls-1" d="M446.39,1H68.61A66.61,66.61,0,0,0,2,67.61V445.39A66.61,66.61,0,0,0,68.61,512H446.39A66.61,66.61,0,0,0,513,445.39V67.61A66.61,66.61,0,0,0,446.39,1ZM197.29,153.61c24.68-24.36,49-49.08,73.7-73.44A54.71,54.71,0,0,1,331.26,69,55.5,55.5,0,0,1,365,119.87c-.31,14.17-4.69,26.87-14.44,37.3-7.68,8.21-15.61,16.22-23.84,23.87-4.5,4.17-5-2.65-7.62-3.79-1.82-.78-3-2.33-.65-4.58,7.25-6.94,14.31-14.08,21.34-21.26,17.64-18,17.82-45,.49-62.36-17.14-17.13-44.22-17-62,.56q-36.42,36-72.38,72.49c-3.11,3.15-4.7,1.82-6.34-.69C198.05,159.14,192.51,158.33,197.29,153.61Zm103.36-42.84c-8.08,8.2-16.2,16.38-24.45,24.41-2.44,2.37-5.46,2.27-7.94-.1s-2.77-5.47-.41-7.91c8.09-8.37,16.38-16.56,24.69-24.73.87-.85,2.36-1.09,3-1.39,3.13,0,5,1.11,6.08,3.4A5.27,5.27,0,0,1,300.65,110.77ZM207,187.86q17.76-17.76,35.49-35.53c3-3,6.33-4.59,9.73-1.18s1.74,6.5-1.18,9.41q-38.1,38-76.15,76.12c-1.52,1.53-3,3.11-5.19,3-2.79.06-4.71-1-5.69-3.36-1.27-3-.12-5.36,2.07-7.55Q186.56,208.35,207,187.86ZM114.19,358.2c-.23-5.11,3.49-6.11,7.91-6.19,20.56-.36,37.66-14.95,41.85-35.52,4-19.56-6.69-39.8-25.34-48.06a43.6,43.6,0,0,0-50.25,68.72c3,3.33,5.78,6.84,1.43,10.63s-7.56.46-10.43-2.85a55.11,55.11,0,0,1,2.31-75.46c31-31.31,62.28-62.35,93.42-93.53,2.92-2.93,6.14-4.41,9.39-1.09s1.75,6.75-1.26,9.75q-31.59,31.5-63.08,63.08c-1.57,1.56-2.92,3.34-4.37,5l6.61.59c30.88.36,54.49,25.31,54,56.84a22.7,22.7,0,0,0,.54,3.72c.91-.76,1.88-1.47,2.72-2.31Q237.36,253.88,295,196.18c3.11-3.12,6.42-6.24,10.51-2.08s.92,7.44-2.19,10.54Q232.42,275.5,161.57,346.43c-10.81,10.84-23.64,16.77-38.93,17.47C118.36,364.1,114.41,363.28,114.19,358.2ZM90.45,307c.49-16.33,14.88-29.83,31.22-29.28,17.2.58,30.49,14.39,30.05,31.24a30.65,30.65,0,0,1-31.61,30.1C103.12,338.59,89.93,324.32,90.45,307ZM391,292.28q-71.07,71-142.06,142.05c-10.93,10.95-24,16.72-39.44,17.21-4.1.13-7.48-1.14-7.63-5.72-.16-4.85,3.2-6.1,7.53-6.18,20.91-.36,38-14.84,42.24-35.57,4-19.54-6.76-39.81-25.4-48A43.59,43.59,0,0,0,176,424.82c3,3.34,5.71,6.89,1.31,10.63s-7.56.33-10.41-2.95c-19.05-22-18.34-54.47,2.12-75.16,31.08-31.42,62.46-62.55,93.69-93.82,2.94-2.95,6.15-4.33,9.4-1S274,269,271.09,272q-31.69,31.65-63.35,63.36c-1.56,1.57-2.91,3.34-4.35,5l6.62.56c30.88.37,54.59,25.41,54,56.84,0,1.17.14,2.34.22,3.51a20.5,20.5,0,0,0,3.06-2.11Q325,341.5,382.66,283.8c3.11-3.12,6.44-6.24,10.52-2.07S394.06,289.17,391,292.28ZM178.06,395.09a30.64,30.64,0,1,1,29.73,31.6C191,426.31,177.67,412.12,178.06,395.09Zm152.3-155.42c2.19-2.2,4.55-3.37,7.55-2.29,2.38.86,3.38,2.88,3.69,5.13a7.8,7.8,0,0,1-2.68,5.38q-38.37,38.33-76.7,76.7c-3,3-6.26,4.16-9.44.93S251,319,254,316.09Q292.2,277.91,330.36,239.67Zm25.1-24.84c8.09-8.38,16.38-16.57,24.69-24.73a8.44,8.44,0,0,1,3-1.39c3.18,0,5,1.06,6.13,3.35a5.23,5.23,0,0,1-1,6.32c-8.08,8.2-16.2,16.38-24.44,24.41-2.44,2.37-5.46,2.28-8-.06S353.1,217.28,355.46,214.83Zm81.91,30.88c-7.42,7.72-15.06,15.23-22.67,22.77-4.56,4.51-5.05-1.87-7.4-3.06-2-1-3.86-2.7-.91-5.47,6.93-6.5,13.52-13.36,20.22-20.1,18.4-18.51,18.94-45.63,1.27-63.17s-44.57-16.89-62.89,1.37q-36.39,36.3-72.69,72.71c-3,3-6.3,5.32-10,1.81-4-3.77-1.5-7.11,1.63-10.23,24.83-24.77,49.52-49.68,74.46-74.34a54.92,54.92,0,0,1,60.21-11.52c20.66,8.78,34,28.82,34,52.27A54.06,54.06,0,0,1,437.37,245.71Z"/></svg>