<svg id="Camada_1" data-name="Camada 1" xmlns="http://www.w3.org/2000/svg" viewBox="0 0 512 512"><defs><style>.cls-1{fill:#043242;}</style></defs><title>MOD_wrench</title><path class="cls-1" d="M410.45,171.07A22.58,22.58,0,0,0,408,173q-16.77,16.71-33.49,33.44c-3.19,3.18-6.22,8.2-11,7.32-14.91-2.77-30.54-4.51-44.1-10.63-8.8-4-5.88-17.58-8.82-26.68-1.39-4.31-1.7-9-3-13.3-1.7-5.8,0-10.18,4.19-14.27,10.68-10.43,21.18-21,31.69-31.64,2.18-2.2,4.13-4.64,6.19-7l-7-1c-45.36-.09-77.89,35.84-74.75,78.51.76,10.21,9.65,20.32-1.59,31.3-44.14,43.13-87.48,87.07-131.12,130.71-11.66,11.67-12.51,27.24-2.08,37.8s26.25,9.77,38-2q65.69-65.67,131.29-131.43c5.07-5.1,10-6.25,16.8-4.14,48.23,15,97.37-25.49,92.13-75.65A17.39,17.39,0,0,0,410.45,171.07Z"/><path class="cls-1" d="M441.28,0H70.72A70.72,70.72,0,0,0,0,70.72V441.28A70.72,70.72,0,0,0,70.72,512H441.28A70.72,70.72,0,0,0,512,441.28V70.72A70.72,70.72,0,0,0,441.28,0ZM408.37,241.91c-23.68,26.69-54,35.81-89.06,28.65a7,7,0,0,0-7.22,2.21q-62.44,62.61-125,125.09C157,428,117.36,417.53,106.2,376.54v-14c2.27-11.93,8.9-21.11,17.39-29.54,41.31-41,82.3-82.33,123.62-123.31,7.41-7.35,1.1-14.59.75-21.59C245.4,138.06,278.7,97,328.58,89.78a7.72,7.72,0,0,0,1.22-.36h19.69c7.57,1.87,15.41,3,22.66,5.78,9.28,3.51,10.86,10.37,3.93,17.55-14.91,15.45-30.95,29.88-45.21,45.9-7.19,8.09,1.88,17.57,2.14,26.57.1,3.59,3.8,2.53,5.95,3.46,14.6,6.29,25.51,2.51,35.61-10,9.77-12.12,21.72-22.54,33-33.39,7.7-7.41,14.77-6.18,18.31,4C437.8,183.34,432.32,214.9,408.37,241.91Z"/></svg>