<svg id="Camada_1" data-name="Camada 1" xmlns="http://www.w3.org/2000/svg" viewBox="0 0 512 512"><defs><style>.cls-1{fill:#043242;}</style></defs><title>MOD_beam</title><path class="cls-1" d="M270.79,386.1c-10.91.33-21.85.28-32.76-.05-18.84-.56-34.35-15.76-34.8-34.62s-.41-37.62,0-56.41c.38-16.84,13.67-31.77,30.34-33.95,8.54-1.12,17.47-1.86,25.92-.64,15.32,2.21,21.05-3,18.41-18.4-.75-4.33-1.66-5.57-6-5.56-50.12.13-100.25.8-150.33-.36-15-.34-20.2,3.35-17.81,18.15.73,4.52,1.47,6.17,6.21,6,9.79-.34,19.59-.22,29.39-.07,22.55.33,37.71,13.35,39.19,35.78a412.24,412.24,0,0,1-.08,55.35c-1.52,22-16.64,34.73-38.73,34.86-8.11.05-16.3.7-24.31-.16-9.52-1-11.62,2.26-11.87,11.63-.29,10.62,2.6,13.17,13,12.8,24.63-.87,49.32-.28,74-.28,23.31,0,46.69-1.06,69.91.39,14.52.9,19.6-3,17.43-17.53C277.17,387.72,276.19,385.93,270.79,386.1Z"/><path class="cls-1" d="M168.14,337.74c0-3.94.08-7.88,0-11.82a38.84,38.84,0,0,0-.8-5.08,36.13,36.13,0,0,0-3.91,3q-21.66,21.56-43.22,43.21c-2.42,2.44-4.56,5.15-6.83,7.73,3.48.3,7,.85,10.46.86C161.68,375.7,168.14,370.15,168.14,337.74Z"/><path class="cls-1" d="M288.58,395.73c.26,1.49.49,3,.74,4.49a26.41,26.41,0,0,0,3.65-2.65q64.25-66.68,128.52-133.32c4.35-4.5,7.77-8.7,6.78-12.16-.6-6.13-.88-9.1-1.17-12.08a87.57,87.57,0,0,0-7.05,5.92c-41,42.65-81.75,85.47-123,127.88C290.79,380.3,287.06,386.72,288.58,395.73Z"/><path class="cls-1" d="M197.22,225.64c26.47,0,52.94,0,79.4.05a9.64,9.64,0,0,0,7.48-3q66-66.12,132.06-132.17a21,21,0,0,0,2.21-3.21,20.07,20.07,0,0,0-3.77-.73q-79.91-.06-159.82-.07a9,9,0,0,0-6.89,2.75Q181.65,155.61,115.34,221.9a17.27,17.27,0,0,0-2,3,16.09,16.09,0,0,0,3.43.75Q157,225.67,197.22,225.64Z"/><path class="cls-1" d="M440.44,1H75.56A73.55,73.55,0,0,0,2,74.56V439.44A73.55,73.55,0,0,0,75.56,513H440.44A73.55,73.55,0,0,0,514,439.44V74.56A73.55,73.55,0,0,0,440.44,1ZM362,201.35c3.7,10.37,10.79,17.12,21.82,18.08,10.39.9,20.9.51,31.36.67,26.43.41,23.5-4,23.32,23.51-.05,7.14,2.94,15.15-3,21.38q-73,76-146.1,152a12.74,12.74,0,0,1-9.83,4.21q-88.69-.09-177.37,0c-4.22,0-7.5-1.09-9.3-5.16V380.84a82.1,82.1,0,0,1,5.84-7.34q33-33.15,66.08-66.19c1.31-1.31,2.84-2.9,3.18-4.58,3.19-15.85-9.11-31.27-25.32-31.58-13.5-.26-27-.16-40.52,0-4.24,0-7.5-1.09-9.26-5.19V230.78a84.86,84.86,0,0,1,5.89-7.29Q169.8,152.29,241,81.22a87.07,87.07,0,0,1,7.3-5.9H433.5c4.06,1.81,4.61,5.22,5.27,9.29,3.8,23.57-4.41,41.1-22.85,56.49S381.44,175,364.19,192C361.24,194.93,360.67,197.69,362,201.35Z"/><path class="cls-1" d="M348.75,207.59c-9.88,9.87-21,18.8-29.39,29.81-20.34,26.74-45.43,40.36-79.53,33.69a1.93,1.93,0,0,0-.34,0,26.25,26.25,0,0,0-25.85,25.64c-.23,8.78,0,17.57-.06,26.35s-.11,17.35,0,26c.16,9.43,3.7,17.82,12.1,22.06,17.6,8.87,36.68,3.33,55.12,4,.76,0,1.64-1.12,2.33-1.84Q350.09,303.59,417,233.83a11.1,11.1,0,0,0,1.36-2.5,11.62,11.62,0,0,0-2.81-.72c-8.33-.07-16.67-.19-25,0-17.4.32-30.2-6.81-37.59-22.84C351.5,204.64,350.19,206.14,348.75,207.59ZM237.11,356.94c-3.24-.27-5.14-2-5.08-5.15a4.74,4.74,0,0,1,5.15-5c3,.05,4.71,2,4.77,5C242,355,240.19,356.63,237.11,356.94Zm17.12-18.34a4,4,0,0,1-4.79-4.74,13.87,13.87,0,0,1,10.68-11.16c2.91-.7,4.79,1.88,5.21,5.75C262.9,332.72,260.3,337.66,254.23,338.6Zm33.87-35a13.87,13.87,0,0,1-10.63,10.93,4.22,4.22,0,0,1-5-5c1.14-5.62,5.38-8.95,9.82-11C286.34,298.73,288.78,300.68,288.1,303.61Zm23.14-24.25c-1.12,5.81-5.61,9-10.18,11.38-3.66-.62-6.31-2.49-5.55-5.38,1.44-5.5,5.09-9.82,11-10.86A4.14,4.14,0,0,1,311.24,279.36Zm23.07-24.18c-1.13,5.81-5.61,9-10.08,11.26-4-.4-6.44-2.46-5.69-5.31,1.42-5.4,5.08-9.67,10.73-10.9A4.24,4.24,0,0,1,334.31,255.18ZM346.81,242c-3.26.1-5.13-1.76-5.25-4.88s2-4.78,5-5.27c3.12.38,5,2.08,5,5.24S349.89,241.93,346.81,242Z"/><path class="cls-1" d="M428.07,105l-1.17-9.11c-2.35,2-4.84,3.89-7,6.07-40.65,40.59-81.1,81.37-122,121.67-6.82,6.71-10.93,13.29-9.25,22.85.26,1.48.55,2.95.82,4.42a29.4,29.4,0,0,0,3.68-2.72Q357.4,183.91,421.73,119.7C426,115.43,429.18,111.32,428.07,105Z"/></svg>