<svg id="Camada_1" data-name="Camada 1" xmlns="http://www.w3.org/2000/svg" viewBox="0 0 512 512"><defs><style>.cls-1{fill:#043242;}</style></defs><title>MOD_sheet</title><path class="cls-1" d="M170.73,88.25a16.14,16.14,0,0,0-.95-3.62,20.07,20.07,0,0,0-3.13,2.09c-7.62,7.54-15.25,15.08-22.74,22.74-4.35,4.44-8.46,9.11-12.68,13.68,6.18,2.26,12.57.86,18.84.92,20.72.22,20.72.09,20.7-20.52C170.77,98.44,170.83,93.34,170.73,88.25Z"/><path class="cls-1" d="M386.86,263q0-75.74,0-151.47c0-9.66-7.47-6.42-12.61-7.14s-6.91,1.07-6.9,6.61c.18,92.61,0,185.21.27,277.82,0,10-3.76,13.32-13.45,13.28-68.15-.23-136.3-.12-204.44-.11-3.94,0-8.65-1-7.57,5.73.92,5.73-3.25,14,8.13,14q114.2-.15,228.38,0c6.06,0,8.31-2.34,8.29-8.42C386.8,363.18,386.87,313.08,386.86,263Z"/><path class="cls-1" d="M445.33,1H70.67A67.67,67.67,0,0,0,3,68.67V444.33A67.67,67.67,0,0,0,70.67,512H445.33A67.67,67.67,0,0,0,513,444.33V68.67A67.67,67.67,0,0,0,445.33,1ZM124.09,313.86c.12,2.92.09,6.57-3.7,6.53-5-.06-3.25-4.58-3.78-7.41.38-2.88-.77-7,3.79-6.76C125.14,306.5,124,310.79,124.09,313.86Zm270.29,99.7c0,10.69-4.88,15.5-15.5,15.49q-113.79-.12-227.59,0c-12.65,0-17-3.95-16.44-16.64.31-7.33-.62-11.63-9.53-10.66-5.53.61-8.63-3-8.63-8.78q0-29.43,0-58.86c0-2.62.26-5.51,3.57-5.46s3.87,2.94,3.87,5.74c0,18.45.08,36.89-.06,55.33,0,3.43.83,5,4.52,5q113.4-.09,226.81,0c4.33,0,4.74-2.23,4.73-5.69q-.09-76.53,0-153,0-76.32.09-152.65c0-4.63-1.39-6-6-6q-85.15.21-170.31,0c-4.55,0-5.75,1.43-5.66,5.82.26,13.6,0,27.21.16,40.81.09,5.47-1.74,7.82-7.5,7.7-13.6-.28-27.21.13-40.81-.21-5-.12-6,1.62-6,6.27q.23,76.52.08,153c0,3.09.5,7.09-4.06,7-4.23-.08-3.35-4-3.35-6.7q-.06-80-.08-160.1a10.72,10.72,0,0,1,3.47-8.29Q144.76,98.2,169.2,73.52A11.11,11.11,0,0,1,177.84,70q88.89.12,177.76,0c8.57,0,12.47,3.38,11.88,11.91a29.63,29.63,0,0,1,0,3.53c-1.81,9.47,1.67,12.9,11.51,11.89,10.47-1.07,15.45,4.59,15.44,15.33Q394.23,263.08,394.38,413.56ZM168.08,201.14H315.61c2.92,0,6.38,0,6.23,4.06s-3.69,3.36-6.32,3.37q-36.88.06-73.77,0t-73.76,0c-2.75,0-6.21.24-6.12-3.64C162,201.37,165.21,201.14,168.08,201.14Zm-6.17-32.25c.06-4,3.92-3.52,6.71-3.52q73.2-.06,146.38,0c2.83,0,6.87-.74,6.8,3.76-.07,4.19-3.94,3.47-6.66,3.47-24.46.07-48.92,0-73.38,0s-48.66,0-73,0C165.89,172.61,161.84,173.26,161.91,168.89Zm160,72.41c-.12,3.75-3.37,3.39-5.95,3.39q-37.08,0-74.15,0-36.88,0-73.77,0c-2.75,0-6.21.21-6.12-3.66.09-3.58,3.33-3.8,6.21-3.8H316C318.89,237.25,322,237.5,321.86,241.3ZM168.34,273.35H315.49c2.91,0,6.38-.2,6.36,3.9s-3.51,3.53-6.19,3.53q-36.89.06-73.77,0t-73.77,0c-2.75,0-6.27.25-6.25-3.55S165.36,273.35,168.34,273.35Zm-.26,36.09H316c2.71,0,5.71.05,5.84,3.62.14,4.09-3.2,3.76-5.94,3.76q-36.89,0-73.78,0H168c-2.77,0-6.2.2-6.11-3.66C162,309.56,165.21,309.44,168.08,309.44Zm-.1,36.1h148c2.84,0,6,0,5.95,3.89s-3.22,3.49-5.84,3.49q-37.1,0-74.17,0H168.09c-2.77,0-6.21.24-6.22-3.57C161.85,345.72,165.09,345.54,168,345.54Z"/></svg>