<svg id="Camada_1" data-name="Camada 1" xmlns="http://www.w3.org/2000/svg" viewBox="0 0 1080 512"><defs><style>.cls-1{fill:#043242;}</style></defs><title>HEADER_logo</title><path class="cls-1" d="M511.11,196.21,471,126.74l-40.41,73L383.67,113.7H303.13l.63,1.11H241.94V381.36L169.16,286.6c28.08-15.52,48.77-41.38,48.77-77.21,0-78.33-54.31-94.58-121.92-94.58H24.71v269H96V302.85l54.31,80.91H383.67l46.92-86.45,46.55,86.45h80.54L481.57,248.55ZM96,250.39V167.64a37.93,37.93,0,0,1,6.28-.37c25.49,0,44.33,14.78,44.33,41.38C146.62,238.94,123.72,250.76,96,250.39Zm217.23,115.4V131.62l66,116.93Z"/><polygon class="cls-1" points="691.95 113.24 691.95 113 510.93 113 479.34 113 519.15 181.96 519.24 181.81 565.6 181.81 565.6 383.76 636.91 383.76 636.91 181.81 683.3 181.81 722.88 113.24 691.95 113.24"/><path class="cls-1" d="M994.37,285c28.08-15.51,48.77-41.37,48.77-77.21,0-78.32-54.31-94.58-121.92-94.58H739.15l-47.51,82.3V382.2H921.22V301.29l54.31,80.91H1069ZM849.92,313.85h-87v-41h75.37V219.27H762.94V181.59h87Zm71.3-65V166.07a38,38,0,0,1,6.28-.37c25.5,0,44.34,14.78,44.34,41.38C971.84,237.38,948.93,249.2,921.22,248.83Z"/></svg>