<svg id="Camada_1" data-name="Camada 1" xmlns="http://www.w3.org/2000/svg" viewBox="0 0 1080 1080"><defs><style>.cls-1{opacity:0.64;}.cls-2{fill:none;stroke:#043242;stroke-miterlimit:10;stroke-width:5.21px;}</style></defs><title>OUTLINE_logo</title><g class="cls-1"><path class="cls-2" d="M937.56,850.19c49.08-27.12,85.24-72.32,85.24-135,0-136.9-94.93-165.31-213.1-165.31H491.46l-83,143.84V1020H809.7V878.6L904.63,1020H1068ZM685.08,900.56h-152V828.88H664.78V735.25H533.05V669.38h152ZM809.7,786.91V642.26a67,67,0,0,1,11-.64c44.56,0,77.49,25.82,77.49,72.32C898.17,766.89,858.14,787.55,809.7,786.91Z"/><path class="cls-2" d="M141.65,388.84l94.93,141.42H473l48.36-83.76v-357l115,203.83L638,295,542.26,461.69l-20.91,37.16v-.93l-18.68,32.34H644.44l82-151.1,81.36,151.1H948.58l-133-236.34,51.63-91.48L797.09,81,726.45,208.68l-82-150.46L396.52,57l.2,469.05L269.51,360.43c49.07-27.12,85.24-72.32,85.24-135,0-136.9-94.93-165.31-213.1-165.31H17v470.1H141.65Zm0-236.34a67,67,0,0,1,11-.64c44.56,0,77.49,25.82,77.49,72.32,0,52.95-40,73.61-88.47,73Z"/><polygon class="cls-2" points="408.97 549.92 92.56 549.5 40.23 549.5 109.67 669.76 188.13 669.76 188.13 805.65 312.75 1021.52 312.75 669.76 393.84 669.76 463.03 549.92 408.97 549.92"/></g></svg>