<svg id="Camada_1" data-name="Camada 1" xmlns="http://www.w3.org/2000/svg" viewBox="0 0 1080 1080"><defs><style>.cls-1{fill:#043242;}</style></defs><title>SOLID_logo</title><path class="cls-1" d="M938.75,838c48.63-26.87,84.46-71.66,84.46-133.73,0-135.65-94.06-163.8-211.15-163.8H496.71L414.43,683v323.29H812.06V866.12l94.06,140.13H1068ZM688.56,887.87H537.92v-71H668.45V724.07H537.92V658.8H688.56Zm123.5-112.61V631.93a65.76,65.76,0,0,1,10.88-.64c44.15,0,76.78,25.59,76.78,71.66C899.72,755.42,860.05,775.9,812.06,775.26Z"/><path class="cls-1" d="M150.09,380.82,244.15,521H478.41l47.92-83V84.25l114,202,1.6,1.65L547.05,453l-20.72,36.82v-.93L507.82,521H648.3l81.26-149.73L810.18,521H949.67L817.86,286.76,869,196.11,799.55,75.8l-70,126.5L648.3,53.21,402.63,52l.2,464.78-126-164.11c48.63-26.88,84.46-71.67,84.46-133.73,0-135.65-94.06-163.81-211.15-163.81H26.6V521H150.09Zm0-234.19A65.82,65.82,0,0,1,161,146c44.15,0,76.78,25.6,76.78,71.67,0,52.46-39.67,72.94-87.66,72.3Z"/><polygon class="cls-1" points="414.97 540.43 101.44 540.01 49.59 540.01 118.4 659.18 196.14 659.18 196.14 793.83 319.63 1007.73 319.63 659.18 399.98 659.18 468.54 540.43 414.97 540.43"/></svg>