<svg id="Camada_1" data-name="Camada 1" xmlns="http://www.w3.org/2000/svg" viewBox="0 0 512 512"><defs><style>.cls-1{fill:#043242;}</style></defs><title>building</title><path class="cls-1" d="M39.11,473.64c2-5.34,6.07-6.93,11.58-6.88,19.42.19,38.85.07,58.28.07h5.45c1.86-3.31,1.27-6.34,1.27-9.25q0-208.66,0-417.32c0-12.79,1.14-13.93,13.91-13.93H315.15c9.89,0,12,2.12,12,11.93v169c2.49,2,4.8,1.4,6.95,1.41q47.82.06,95.65,0c9.2,0,11.31,2.08,11.31,11.18V465.46c2.37,1.9,4.53,1.33,6.54,1.34,12,.06,24,0,36,0,4.31,0,8.58.31,10,5.4s-2.17,7.45-6,9.41H46.23a12.65,12.65,0,0,1-7.12-7.12Zm189.39-7.16c1.67-2.78,1.1-5.66,1.1-8.42q0-118.35,0-236.69c0-11.37,1.3-12.63,12.85-12.63q32,0,64.07,0c1.88,0,3.86.41,6.06-.93V41.21H130.09v425.3a151.7,151.7,0,0,0,23.25-.13v-6.11c0-19.88-.08-39.75,0-59.62.08-15.57,9.19-24.61,24.6-24.69q5.57,0,11.12,0c15,.1,24.13,9.12,24.16,24.08,0,20,0,40,0,60.06,0,2-.44,4.16,1,6.38Zm15.56-243V466.43H426.35V223.49Zm-75.92,243h30c1.23-2.56,1-5,1-7.32q0-24.69,0-49.37c0-19.69-1.51-21.09-21.42-19.91-7,.41-9.87,3.3-9.88,10.34q0,30.69,0,61.38C167.85,463.07,168,464.53,168.14,466.5Z"/><path class="cls-1" d="M213.25,239.14c0,6.82,0,13.63,0,20.44,0,5.86-2.92,8.95-8.61,9q-21.33.21-42.65,0c-5.54,0-8.55-3.24-8.6-8.67q-.21-21.31,0-42.65c.07-5.41,3.06-8.51,8.69-8.51,14.22,0,28.44-.06,42.65,0,5.56,0,8.47,3,8.49,8.59C213.27,224.63,213.25,231.89,213.25,239.14Zm-14.49,14.69a229.09,229.09,0,0,0-.09-30.23H168.22v30.23Z"/><path class="cls-1" d="M183.24,116.54c-7,0-13.92-.09-20.88,0-6,.1-8.88-3-9-8.63-.16-14.07-.11-28.13,0-42.2,0-5.43,2.84-8.8,8.39-8.86q21.54-.25,43.08,0c5.69.08,8.47,3.34,8.43,9.18-.1,13.77,0,27.54,0,41.31,0,6.6-2.57,9.14-9.12,9.19C197.16,116.58,190.2,116.54,183.24,116.54Zm-15.09-14.42h30.76c.22-10.45.68-20.41-.28-30.54H168.15Z"/><path class="cls-1" d="M183.17,344.36c-7,0-13.92-.09-20.88,0-5.71.09-8.76-2.87-8.85-8.26-.21-14.36-.17-28.72,0-43.09,0-5.27,3.16-8.3,8.42-8.36,14.36-.14,28.72-.18,43.08,0,5.71.08,8.41,3.43,8.36,9.24-.11,13.77,0,27.54,0,41.31,0,6.56-2.6,9.07-9.19,9.12C197.09,344.4,190.13,344.36,183.17,344.36Zm15.59-14.28c.5-10.69.79-20.64-.17-30.78H168.21v30.75A273,273,0,0,0,198.76,330.08Z"/><path class="cls-1" d="M183.87,133h21.35c5.35,0,7.95,2.93,8,8,.1,14.39.07,28.77,0,43.16,0,5.43-2.84,8.18-8.3,8.18-14.38,0-28.77,0-43.15,0-5.6,0-8.28-3.12-8.35-8.27q-.27-21.35,0-42.71c.07-5.33,2.8-8.54,8.64-8.44C169.34,133.08,176.6,133,183.87,133Zm14.91,45c.47-10.31.76-20.38-.15-30.54H168.22V178Z"/><path class="cls-1" d="M289,86.52c0,7.41,0,14.83,0,22.24,0,5.07-2.74,7.71-7.73,7.74q-22,.1-44,0c-4.78,0-7.49-2.63-7.51-7.48-.07-14.82,0-29.65,0-44.47,0-4.42,2.36-7.34,6.63-7.41q22.88-.39,45.77-.05c4.7.08,7,3.29,6.94,8.09C289,72.29,289,79.41,289,86.52ZM244,102.4c10.5.11,20.53.82,30.7-.41V71.5H244Z"/><path class="cls-1" d="M289,163.06c0,7.12,0,14.23,0,21.34,0,5-2.43,7.88-7.51,7.91q-22.22.12-44.44,0c-4.84,0-7.36-2.73-7.37-7.56q-.06-22,0-44c0-5,2.61-7.72,7.7-7.73q22,0,44,0c5.08,0,7.58,2.8,7.61,7.81C289,148.25,289,155.66,289,163.06ZM244,178h30.68V147.35H244Z"/><path class="cls-1" d="M327.16,269.06c0,7.1,0,14.21,0,21.32,0,5.64-3,8.48-8.58,8.51q-21.31.09-42.65,0c-5.64,0-8.54-3.22-8.6-8.6q-.22-21.33,0-42.65c.06-5.45,3.17-8.54,8.69-8.58,14.21-.09,28.43-.13,42.65,0,5.43.06,8.5,3,8.49,8.65ZM282.1,253.75v30.34h30.63a251.5,251.5,0,0,0-.13-30.34Z"/><path class="cls-1" d="M327.16,421.1c0,6.82-.09,13.63,0,20.44.11,5.8-2.63,9.17-8.34,9.25-14.36.2-28.73.17-43.08,0-5.8-.07-8.49-3.62-8.51-9.23,0-13.77-.09-27.54,0-41.31.06-6.42,2.91-9.11,9.34-9.13,13.92-.05,27.84,0,41.76,0,5.89,0,8.75,2.87,8.77,8.68C327.18,406.89,327.16,414,327.16,421.1Zm-45-15.56v30.65h30.38a230.67,230.67,0,0,0,0-30.89C302.17,405,292.24,404.6,282.21,405.54Z"/><path class="cls-1" d="M402.93,269.15c0,7.12-.05,14.23,0,21.35.05,5.55-2.84,8.32-8.15,8.36q-21.57.18-43.15,0c-5.06,0-8.06-2.6-8.06-8,0-14.53,0-29.06,0-43.59,0-5.37,2.95-8.12,7.92-8.19q21.79-.3,43.59,0c5,.07,7.93,2.84,7.87,8.22C402.87,254.62,402.92,261.88,402.93,269.15Zm-14.32-15.28H358v30.19h30.64Z"/><path class="cls-1" d="M297.11,374.67c-7,0-13.94-.12-20.9,0-5.78.13-8.77-2.84-8.86-8.23q-.32-21.59,0-43.15c.08-5.2,3-8.1,8.55-8.07,14.24.06,28.47,0,42.71,0,6,0,8.58,3.06,8.56,8.87-.05,13.94,0,27.88,0,41.81,0,5.78-2.7,8.82-8.69,8.74C311.35,374.6,304.23,374.67,297.11,374.67Zm15.6-14.31c.42-10.4.76-20.46-.19-30.71H282.15v30.71Z"/><path class="cls-1" d="M402.92,421.05c0,7.26,0,14.52,0,21.79,0,4.64-2.37,7.64-6.83,7.72q-22.87.38-45.76,0c-4.52-.08-6.76-3.2-6.75-7.79q0-21.78,0-43.58c0-5.54,2.95-8.07,8.36-8.06h42.7c5.41,0,8.29,2.6,8.29,8.13Q402.92,410.16,402.92,421.05ZM358,405.57v30.5h30.68V405.41C378.24,404.94,368.21,404.63,358,405.57Z"/><path class="cls-1" d="M402.93,344.6c0,7.26,0,14.52,0,21.78,0,5.44-2.56,8.28-8.1,8.28q-21.55,0-43.11,0c-5.53,0-8.16-2.76-8.16-8.21q0-21.56,0-43.11c0-5.27,2.59-8,7.86-8q21.78-.06,43.56,0c5.22,0,7.95,2.64,7.94,8Q402.9,333.94,402.93,344.6Zm-45-15V360.3h30.65V329.63Z"/></svg>