<svg id="Camada_1" data-name="Camada 1" xmlns="http://www.w3.org/2000/svg" viewBox="0 0 512 512"><defs><style>.cls-1{fill:#043242;}</style></defs><title>energy</title><path class="cls-1" d="M490,260.3c-2.95,5.5-7.62,7.25-13.72,7.09-11.22-.29-22.47-.07-33.7-.09-6.6,0-11.45-2.74-11.45-9.78s4.85-9.77,11.45-9.77c11.24,0,22.48.21,33.71-.1,6.11-.16,10.75,1.62,13.71,7.1Z"/><path class="cls-1" d="M250.57,494.19c-5.48-3-7.27-7.6-7.1-13.72.3-11.23.08-22.47.09-33.7,0-6.61,2.75-11.45,9.78-11.45s9.77,4.85,9.78,11.45c0,11.23-.2,22.47.09,33.7.15,6.09-1.59,10.77-7.1,13.72Z"/><path class="cls-1" d="M274.68,218.16c21.85,0,42.91,0,64,0,4.81,0,9.36.4,11.91,5.25s.44,8.8-2.22,12.83q-56.7,86-113.26,172c-3.4,5.18-7.4,8.66-13.7,6-6.11-2.55-6.19-7.85-5.4-13.67q8.16-59.91,16-119.87a31.32,31.32,0,0,0,0-3.69c-21.6,0-43-.06-64.34,0-4.89,0-9.34-.49-11.72-5.44s-.13-8.78,2.81-12.68q56.75-75.51,113.34-151.13c3.74-5,7.48-10.13,14.67-7s6,9.41,5,15.52C286.05,150,280.44,183.66,274.68,218.16ZM240.43,364.64C269,321.29,296.15,280,324,237.73c-20.3,0-39.47.08-58.65,0-8.94-.05-12.91-4.42-11.35-13.61,4.22-24.82,8.26-49.66,12.73-76.65l-82.65,110.2h50.35c18.35,0,20.07,2.32,17.49,20.54C248,306.14,244.45,334.17,240.43,364.64Z"/><path class="cls-1" d="M263.08,50.74c0,6.3.19,12.61,0,18.9-.22,6.07-3.45,10.09-9.66,10.12s-9.64-3.94-9.74-10q-.32-19.35,0-38.72c.11-6.09,3.64-10,9.84-9.89,6,.08,9.26,3.91,9.5,9.79C263.27,37.52,263.07,44.13,263.08,50.74Z"/><path class="cls-1" d="M46.26,267.29c-6.3,0-12.6.14-18.9,0S16.92,263.88,17,257.41c0-6.22,4.11-9.5,10.17-9.59q19.12-.27,38.26,0c6.07.08,10.14,3.37,10.19,9.58,0,6.47-4.13,9.67-10.41,9.85S52.56,267.29,46.26,267.29Z"/><path class="cls-1" d="M119.45,134.67c-1-.48-3.54-1.09-5.17-2.66-9.58-9.3-19.09-18.7-28.33-28.35-4-4.12-3.86-9.08.21-13.19,4.25-4.29,9.3-4.26,13.55-.17,9.53,9.15,18.77,18.59,28,28a9.17,9.17,0,0,1,1.88,10.65C128,132.68,125,134.54,119.45,134.67Z"/><path class="cls-1" d="M386.94,134.64c-5.2-.06-8.23-1.91-9.87-5.64s-1.3-7.41,1.56-10.32c9.49-9.68,19-19.33,28.79-28.72,3.84-3.69,8.56-3.53,12.56,0s5.22,8.54,1.66,12.37C411.81,112.9,401.37,123,391,133.06,389.84,134.21,387.69,134.37,386.94,134.64Z"/><path class="cls-1" d="M387.22,380.4c1,.48,3.53,1.09,5.16,2.67,9.52,9.22,18.94,18.55,28.14,28.08,4.13,4.29,4.16,9.35-.14,13.57s-9.34,4-13.6-.12c-9.4-9.11-18.59-18.45-27.8-27.76a9.22,9.22,0,0,1-2-10.68C378.61,382.42,381.62,380.51,387.22,380.4Z"/><path class="cls-1" d="M119.66,380.43c5,0,8,1.73,9.71,5.17s1.88,7.21-.77,9.95c-9.91,10.26-19.91,20.46-30.33,30.21-3.66,3.42-8.47,2.52-12.08-1.07s-4.53-8.41-1.11-12.06c9.86-10.52,20.24-20.56,30.56-30.63C116.82,380.85,119,380.69,119.66,380.43Z"/></svg>