<svg id="Camada_1" data-name="Camada 1" xmlns="http://www.w3.org/2000/svg" viewBox="0 0 512 512"><defs><style>.cls-1{fill:#043242;}</style></defs><title>gears</title><path class="cls-1" d="M281.09,15C310,22.08,322.33,41.08,320.2,70.18l31.53,13.11c13.45-15.74,29.89-24.45,51.36-18.42,28.19,7.93,57.78,49.3,53.13,73.89-2.4,12.64-10.31,21.68-19.34,29.85,4.35,10.49,8.54,20.61,13.16,31.77,4.79,0,10.23-.61,15.49.11,22.9,3.1,39,21.51,39.35,44.69.15,10.22.17,20.45,0,30.68-.43,25.38-19.89,44.65-45.21,44.91-3.32,0-6.64,0-9.73,0l-13,31.47c11.46,10.08,20.31,22,20.23,38.59-.06,11.68-3.63,22.16-11.77,30.5-9.8,10-19.26,20.75-30.47,29-19,13.9-37.69,9.54-63.51-12.55l-30.63,12.71c-.48,6.49-.41,13.08-1.55,19.45-3.21,17.85-18.25,33-36.22,34.76a223.37,223.37,0,0,1-43,.51c-24.14-2.3-40.07-21.3-40.22-45.61,0-3,0-6,0-8.93l-31.37-13c-9.8,11-21.34,20.25-37.46,20.1a54.19,54.19,0,0,1-16.82-2.77C86,445.28,59.27,406,63.85,382c2.41-12.66,10.57-21.52,19.29-29.79-4.35-10.51-8.55-20.64-13-31.4C41.34,323,22.1,310.72,15,281.54V239.35c7.09-29.16,26.29-41.41,55.12-39.23l13-31.4C74.49,160.5,66.31,151.66,63.87,139c-5-25.65,27.93-69.44,56.47-75.07,20.32-4,35.57,4.73,48,19.35l31.15-13C202.61,32.93,206.42,27.59,239,15Zm-21,462.28c30.61,0,31.84-1.22,31.84-31.71v-4.31c0-8.45,3.93-13.77,12.25-15.95,12.06-3.15,24.2-6.84,34.5-13.74,13-8.68,22.06-6.23,32.24,4.84,17,18.47,21.69,18,39.37.23,25.22-25.29,25.27-25.34.14-50.8-6.14-6.23-7.22-12.72-2.76-20.29,6.34-10.76,12.3-22,14.73-34.15,3.09-15.42,11.54-19.85,26.4-19.27,24.8,1,27.7-2.62,27.7-27.43,0-35.8,0-35.84-35.49-36.17-8.86-.08-14.28-4-16.54-12.77-3-11.78-6.65-23.63-13.38-33.67-8.89-13.26-6.42-22.64,5-33.07,18-16.41,17.43-21.45.19-38.75-25.46-25.57-25.51-25.62-51-.45C359,116,352.51,117,345,112.56c-10.74-6.37-21.93-12.34-34.08-14.77-15.41-3.07-19.81-11.57-19.23-26.43,1-24.85-2.6-27.74-27.38-27.74-35.73,0-35.77,0-36.11,35.54-.09,8.86-4,14.3-12.75,16.57-11.75,3-23.57,6.67-33.6,13.41-13.22,8.87-22.62,6.46-33-5-16.37-18-21.41-17.5-38.67-.21-25.5,25.54-25.55,25.59-.47,51.12,6.12,6.23,7.2,12.74,2.75,20.3C106,186.25,100,197.61,97.52,209.94c-3,15-11.3,19.33-25.76,18.82-25.51-.91-28.19,2.39-28.19,27.89,0,35.37,0,35.41,35.47,35.71,8.86.08,14.28,4,16.54,12.75,3,11.77,6.6,23.66,13.39,33.66,9.21,13.54,6.08,23-5.32,33.43-17.57,16.09-17,21.22-.23,38.06,25.8,25.84,25.82,25.87,51.74.51,5.91-5.78,12.12-6.68,19.51-2.73,7.85,4.2,15.68,9.79,24.13,11.27,24.4,4.28,33.09,17.59,29.74,41.74-1.37,9.86,6.12,15.59,16.23,16.17C249.85,477.51,255,477.27,260.08,477.28Z"/><path class="cls-1" d="M260.18,154A106.49,106.49,0,1,1,153.73,260.4,106.18,106.18,0,0,1,260.18,154ZM260,182.22a78.23,78.23,0,0,0-.17,156.45c43,.23,78.2-34.92,78.28-78.14A78.22,78.22,0,0,0,260,182.22Z"/></svg>