<svg id="Camada_1" data-name="Camada 1" xmlns="http://www.w3.org/2000/svg" viewBox="0 0 512 512"><defs><style>.cls-1{fill:#043242;}</style></defs><title>hands</title><path class="cls-1" d="M17,226.42C34.31,190.54,55.71,157,75.84,122.71c5.77-9.84,16.26-13.91,27.45-11.79,14.11,2.69,25.86,9.71,32,23.68,1.29,3,2.16,6.7,6.42,4.71,27.41-12.73,56-10.27,83.8-4,21.42,4.84,40.06-4.73,60-6.12,29.84-2.09,59.87-3.39,87.8,10.87,4.59,2.34,6.35.81,8-3.93,5.35-15.61,18.25-22.71,33.15-25.21,14-2.34,23.81,5.24,30.7,17.31,16.6,29.09,33.52,58,50.21,87,7.84,13.64,5.62,27.82-5.69,38.08-14.46,13.14-31.51,15.93-44.27,6.75-3.94-2.84-6.07-2.31-8.82,1.29-7.16,9.36-14.29,18.79-22,27.66-5.11,5.86-5.13,14.49-9.76,19.49-10.57,11.41-15.67,24-18.91,39.22C383,361.21,367.64,367.57,353.6,365c-4.26-.76-6.55.41-8.71,4.17-5.72,9.94-14.41,15.76-26.07,16-4.17.1-6,1.67-7.48,5.45C303.51,411,277.75,417.42,262.5,402c-9.15-9.27-13.88-7.87-21.24,1.79-15.07,19.76-40,20.38-51.13.91-5-8.75-10-14-19.79-16.15-6-1.31-11.55-6.09-13.36-11.86-2.93-9.33-8.8-12.64-17.73-14.8s-14.61-9.53-17.48-18.4c-1.21-3.72-3.26-5.57-7.15-6.39C95.06,332.94,86,320,88.58,300c.41-3.17-.77-5.45-2.53-7.76-3.15-4.12-6.34-8.22-9.34-12.45-6-8.49-11.13-15-24.42-15.26-16.89-.27-29.93-11.21-35.29-28.7Zm166.91-77.29c-16.66-.27-31.26,7-46.46,12a16.06,16.06,0,0,0-9.5,7.81q-22.58,39.53-45.41,78.89c-1.53,2.64-2.35,5.08-.25,7.83,5.14,6.75,10.21,13.56,15.29,20.36,2.35,3.13,4.44,2.69,6.8-.13,4.84-5.79,9.6-11.67,14.85-17.08,15.7-16.16,37.63-13.62,49.21,5.64,1.83,3,3.86,4,7.32,3.49,18.72-2.63,34.05,9.6,35.41,28.42.32,4.43,2.09,6.67,6.1,8.31,12.21,5,18.89,14.27,19.46,27.54.18,4.1,2,6.06,5.71,7.49,11.77,4.53,19.9,13.29,19.29,25.82-.58,11.7,6.36,16.9,13.59,22.66,5.33,4.25,11.26,4.52,16-.94s3.84-11.15-.94-16.08-10-9.51-15-14.32c-4.71-4.56-7.78-9.86-2.34-15.56s10.78-2.93,15.59,1.66C295,349,301.42,355,307.81,361.07c5.85,5.54,12.41,7.18,18.18.77,5.59-6.23,3.21-12.45-2.54-17.72q-9.9-9.08-19.63-18.35c-4.75-4.52-7.88-9.8-2.37-15.5s10.86-2.79,15.65,1.69q15.69,14.64,31.33,29.32c5.83,5.45,12.5,8,18.63,1.4s3.1-13-2.76-18.45q-15.93-14.7-31.91-29.37c-5-4.63-8.09-10.06-2.46-15.85s10.88-2.48,15.64,1.94c7.83,7.27,15.57,14.64,23.52,21.79,5.54,5,11.91,6.14,17,.05,5.29-6.3,3.26-12.57-2.72-17.73q-39.83-34.32-79.58-68.73c-3.42-3-6.49-3.52-10.68-1.78-19.75,8.19-39.53,16.3-59.42,24.15-19.2,7.56-39.57-.11-48.69-18s-3.51-38.22,13.69-49.58c7.08-4.68,14.4-9,21.55-13.59a14,14,0,0,0,2.42-2.64c-1.06-.52-2.09-1.36-3.2-1.5C207.63,151.91,195.77,150.53,183.91,149.13Zm127.65-.67c-22.17-1.91-42,0-60,11.77C238.45,168.84,225,177,211.7,185.35c-11,6.92-14.66,16.87-9.85,26.69S216.79,224.87,229,220c21-8.42,42-16.78,62.87-25.62,7.09-3,12.57-2.58,18.49,2.59,28.75,25.12,57.78,49.92,86.58,75,3.21,2.79,5.13,2.59,7.63-.61,7.06-9,14.19-18,21.51-26.86,2.83-3.42,3-6.39.79-10.22-12.3-21-24.36-42.19-36.68-63.21-1.35-2.3-3.51-4.76-5.87-5.75C360.52,155.38,337.16,143.45,311.56,148.46ZM54.63,246.16c5.6.06,8.81-3.24,11.4-7.75,15.83-27.5,31.61-55,47.67-82.39,5.22-8.89,7.09-16.46-3.9-22.43-11.76-6.39-15.86-5.27-23,7q-23.29,40.41-46.64,80.8C33.15,233.63,40.28,245.93,54.63,246.16Zm425.9-15.89c-.44-1.42-.72-3.71-1.77-5.55q-25.47-44.33-51.16-88.54c-5.46-9.36-12.56-6.82-20.18-2.54-7.83,4.4-10.75,10.2-6.16,18.23C418,181.19,435,210.38,451.91,239.63c3.16,5.46,8,8.2,13.84,5.84C472.35,242.79,480.1,240.46,480.53,230.27Zm-289,69.41c.21-5.84-1.51-9.6-5.75-11.67-4.47-2.18-9.49-2.11-12.73,1.59-11,12.51-21.68,25.26-32,38.34-3.89,5-2.57,10.68,2.33,14.7s10.63,3.88,14.56-.54c11.07-12.42,21.52-25.39,32.07-38.26C191.19,302.5,191.34,300.37,191.57,299.68ZM119.7,318c1.06-.4,3.74-.6,5-2,9.17-10.48,18.47-20.89,26.81-32,3.39-4.52,2.22-10.55-2.76-14.29s-10.86-3.37-15,1.19c-8.68,9.68-16.84,19.83-25,30-2.77,3.47-2.55,7.63-.4,11.55S114.22,317.88,119.7,318Zm97.61,13.3a10.27,10.27,0,0,0-6.71-8.63c-4.61-1.88-9.18-1.23-12.54,2.56C190.27,334,182.67,343,175.12,352c-4.88,5.84-5.91,12.29.38,17.44s12.59,3.12,17.66-2.92c6.35-7.56,12.73-15.11,19.06-22.69C214.85,340.69,217.45,337.5,217.31,331.27Zm-1.38,67.83c.79-.22,3-.21,4.31-1.31,8.91-7.49,16.76-16.08,22.13-26.41,2.46-4.74.1-9.62-4.49-12.62-4.81-3.15-10-2.87-13.82,1.19-6.45,6.82-12.45,14.11-18.22,21.53-2.75,3.53-2.84,8-.68,12.06C207.18,397.33,210.55,399.11,215.93,399.1Z"/></svg>