<svg id="Camada_1" data-name="Camada 1" xmlns="http://www.w3.org/2000/svg" viewBox="0 0 512 512"><defs><style>.cls-1{fill:#043242;}</style></defs><title>sheets</title><path class="cls-1" d="M394.56,233q0-98.82.11-197.64c0-6-1.8-7.79-7.81-7.78q-110.25.27-220.5,0c-5.9,0-7.45,1.84-7.34,7.54.34,17.6-.06,35.22.22,52.83.11,7.08-2.27,10.12-9.72,10-17.61-.37-35.23.17-52.83-.27-6.49-.16-7.79,2.1-7.77,8.12q.3,99.08.11,198.15c0,4,.65,9.18-5.26,9.07-5.47-.1-4.33-5.16-4.33-8.67Q79.35,200.63,79.33,97a13.91,13.91,0,0,1,4.49-10.74q32-31.64,63.59-63.59A14.41,14.41,0,0,1,158.6,18q115.08.16,230.16,0c11.09,0,16.14,4.39,15.38,15.43-.11,1.52.23,3.09-.06,4.56-2.34,12.27,2.17,16.71,14.91,15.4,13.56-1.39,20,5.94,20,19.85q-.21,194.85,0,389.7c0,13.84-6.31,20.07-20.06,20.06q-147.34-.15-294.68-.05c-16.38,0-22-5.12-21.28-21.55.39-9.5-.8-15.06-12.35-13.8-7.15.79-11.17-3.88-11.17-11.37q0-38.1,0-76.21c0-3.39.34-7.13,4.62-7.07s5,3.81,5,7.44c0,23.88.1,47.76-.08,71.63,0,4.45,1.08,6.44,5.85,6.44q146.83-.12,293.67,0c5.61,0,6.14-2.89,6.13-7.37Q394.49,332,394.56,233Zm34.67,35q0-98.05,0-196.11c0-12.51-9.68-8.31-16.33-9.25S403.94,64,404,71.18c.23,119.91,0,239.81.35,359.71,0,12.94-4.87,17.25-17.42,17.2-88.24-.3-176.47-.16-264.71-.15-5.09,0-11.19-1.34-9.79,7.42,1.19,7.42-4.21,18.13,10.53,18.11q147.84-.2,295.69,0c7.85,0,10.76-3,10.73-10.91C429.15,397.71,429.24,332.85,429.23,268ZM149.45,61.54c0-6.6.08-13.21-.06-19.81,0-1.56-.8-3.12-1.23-4.68a25.53,25.53,0,0,0-4,2.71c-9.87,9.76-19.74,19.52-29.45,29.44C109,75,103.71,81,98.25,86.91c8,2.93,16.27,1.11,24.4,1.2C149.46,88.4,149.47,88.22,149.45,61.54Z"/><path class="cls-1" d="M241.53,291.06q-47.76,0-95.52,0c-3.56,0-8.11.31-8.09-4.6s4.51-5.05,8.37-5.05H336.82c3.77,0,8.26-.25,8.24,5s-4.55,4.57-8,4.58Q289.29,291.1,241.53,291.06Z"/><path class="cls-1" d="M241.87,337.7h-96c-3.59,0-8,.26-7.92-4.74.1-4.67,4.32-4.84,8-4.84H337.52c3.51,0,7.4.06,7.56,4.69.19,5.29-4.14,4.87-7.69,4.87Q289.63,337.74,241.87,337.7Z"/><path class="cls-1" d="M241.5,384.45H146c-3.58,0-8,.32-8.06-4.63,0-4.71,4.18-4.95,7.92-4.95H337.39c3.68,0,7.77,0,7.7,5-.06,4.87-4.17,4.52-7.56,4.52Q289.52,384.47,241.5,384.45Z"/><path class="cls-1" d="M241.35,244.32q-47.74,0-95.51,0c-3.56,0-8,.28-7.92-4.74.12-4.63,4.31-4.91,8-4.91H337.48c3.74,0,7.75.33,7.59,5.25s-4.36,4.38-7.7,4.38Q289.36,244.35,241.35,244.32Z"/><path class="cls-1" d="M241.35,197.57q-47.74,0-95.5,0c-3.56,0-8,.31-7.93-4.72.12-4.62,4.33-4.92,8-4.92q95.5,0,191,0c3.79,0,8.27,0,8.08,5.26s-4.78,4.35-8.19,4.36Q289.1,197.62,241.35,197.57Z"/><path class="cls-1" d="M241.36,151q-47.27,0-94.51,0c-3.73,0-9,.82-8.88-4.83.08-5.16,5.08-4.55,8.69-4.56q94.77-.08,189.53,0c3.66,0,8.89-1,8.8,4.86-.08,5.43-5.1,4.49-8.62,4.5Q288.87,151.09,241.36,151Z"/><path class="cls-1" d="M79.31,332.71c.49-3.72-1-9.09,4.92-8.75,6.13.36,4.62,5.92,4.78,9.9.15,3.77.11,8.5-4.8,8.44C77.75,342.23,80,336.38,79.31,332.71Z"/></svg>