<svg id="Camada_1" data-name="Camada 1" xmlns="http://www.w3.org/2000/svg" viewBox="0 0 512 512"><defs><style>.cls-1{fill:#043242;}</style></defs><title>wrench</title><path class="cls-1" d="M40,412.63c3.12-16.4,12.24-29,23.92-40.61,56.81-56.39,113.17-113.22,170-169.59,10.19-10.11,1.52-20.06,1-29.69-3.52-68.85,42.28-125.3,110.88-135.25A11.34,11.34,0,0,0,347.5,37h27.08c10.42,2.57,21.2,4.17,31.16,7.94,12.76,4.82,14.94,14.26,5.41,24.13-20.51,21.26-42.57,41.1-62.17,63.13-9.89,11.12,2.57,24.17,2.93,36.54.14,4.94,5.24,3.48,8.19,4.75,20.08,8.66,35.08,3.46,49-13.79,13.43-16.68,29.86-31,45.38-45.93,10.58-10.18,20.3-8.49,25.17,5.45,16.4,46.93,8.86,90.34-24.08,127.48C423,283.42,381.24,296,333.08,286.11c-4.33-.89-6.95,0-9.93,3q-85.87,86.1-171.92,172c-41.4,41.4-95.88,27-111.23-29.33ZM365.3,64.17c-62.38-.12-107.12,49.28-102.79,108,1,14.05,13.26,28-2.2,43.06C199.61,274.5,140,334.92,80,394.94c-16,16-17.2,37.47-2.85,52s36.09,13.44,52.29-2.76Q219.77,353.84,310,263.41c7-7,13.74-8.59,23.11-5.69,66.31,20.57,133.89-35.05,126.69-104a23.31,23.31,0,0,0-1.38-4.4,34.08,34.08,0,0,0-3.36,2.59q-23,23-46,46c-4.4,4.38-8.56,11.28-15.08,10.07-20.5-3.8-42-6.19-60.64-14.61-12.11-5.47-8.09-24.18-12.13-36.7-1.91-5.92-2.35-12.3-4.09-18.29-2.33-8,0-14,5.77-19.62,14.68-14.35,29.11-28.94,43.57-43.51,3-3,5.69-6.39,8.52-9.59Z"/></svg>