<svg id="Camada_1" data-name="Camada 1" xmlns="http://www.w3.org/2000/svg" viewBox="0 0 512 512"><defs><style>.cls-1{fill:#043242;}</style></defs><title>check</title><path class="cls-1" d="M259.53,12c7.83,4.77,16.76,8.38,23.29,14.53,23.05,21.68,50.26,24,79.35,19,14.81-2.55,25.44.7,30.76,16.55C403,92.22,421.28,115,453.06,124.4c18.17,5.36,24.78,17,20.18,35.39-8.59,34.18,5.63,61.57,26.38,86.82,7.26,8.83,8,17.22.12,25.83-25.67,27.94-33.77,60.49-25.95,97.39,2.14,10.1-1.88,16.83-11.82,20.7-30.53,11.91-57.68,27.64-67.17,62.36-5.22,19.11-17.94,25.33-36.56,20.5-34.95-9.07-61.83,7.4-87.4,27.64-8,6.3-15.45,7-22.91,0-29.21-27.18-63.59-34.31-101.92-26.88-8.17,1.59-13.82-2.07-16.54-9.86-12.25-35.2-33.62-61.43-70.56-72.71C47.1,388,42.17,380.12,45,367.65c8.27-36.8-2.15-68.49-26.71-96.21-7-7.94-7-16,.12-23.69C45,219.07,52.34,185.37,45,147.67c-1.72-8.82,1.68-14.92,10.36-18.16,4-1.52,7.58-4.49,11.66-5.82,28.61-9.3,47.57-28.25,56.44-56.86,6-19.22,18.14-25,37.37-21.09,27.24,5.55,52.29,1.2,73.81-18.33,6.93-6.29,15.9-10.34,23.93-15.41ZM64.85,355.19c-.35,17.64-.75,18.76,9.69,22.43C107,389,130.23,409.33,140.39,442.87c3.33,11,10.65,13.29,20.71,11.33,31.19-6.07,59.54-1.16,83.45,21.37,2.55,2.39,6.06,3.73,8.77,6,4.17,3.46,7.95,3.45,12-.08,27.51-23.85,58.38-35.86,95.21-27.1,8.71,2.07,14.46-1.26,17.17-10,10.68-34.37,34.06-56,67.78-67.09,7.34-2.41,10.4-7.19,8.68-14.67-8.54-37.1,2.08-68.86,26.81-96.71,3.71-4.17,3.83-8.12.07-12.35-24.74-27.83-35.46-59.56-26.89-96.7,1.71-7.4-1.17-12.29-8.57-14.73-33.48-11-57-32.36-67.67-66.58-3-9.68-9.52-12.6-18.74-10.49-34.69,8-64.46-1.74-90.56-24.92-.83-.74-2-1.15-2.79-1.91-4.46-4.14-8.75-3.81-13.2.11-27.31,24.12-58.27,35.06-94.86,26.82-5-1.13-11.76-2.53-14.23,5.14-12,37.37-37,61.68-74.16,73.83-4.19,1.37-5.67,4.33-4.82,8.66,7.51,38.29-.41,72.43-27.34,101.46-3.22,3.49-3.14,7-.12,10.78C59.77,293.39,76.67,323.41,64.85,355.19Z"/><path class="cls-1" d="M104.33,255.13c.13-83.06,67.77-150.64,150.73-150.59S406.2,172.69,406,255.6c-.22,83.15-68.21,150.76-151.39,150.56C171.6,406,104.21,338.22,104.33,255.13ZM255.15,387a131.59,131.59,0,0,0,.06-263.18c-72.85,0-132,58.92-132.06,131.55S182.33,387,255.15,387Z"/><path class="cls-1" d="M236.24,303.59c-3.23-2-6.43-3.21-8.63-5.43-13.2-13.23-26.2-26.66-39.18-40.1-4.24-4.39-5.78-9.49-.92-14.25s10-3.32,14.29,1c10,10.1,20,20.27,29.79,30.67,3.43,3.65,5.82,3.52,9.34.16,21.76-20.78,43.69-41.38,65.54-62.08,5-4.74,10.6-8.37,16.45-2.23,5.68,6,1.9,11.24-3,15.88q-37.51,35.35-75,70.73C242.56,300.12,239.5,301.49,236.24,303.59Z"/></svg>