<svg id="Camada_1" data-name="Camada 1" xmlns="http://www.w3.org/2000/svg" viewBox="0 0 512 512"><defs><style>.cls-1{fill:#043242;}</style></defs><title>idea</title><path class="cls-1" d="M255.11,12c3.65,2.58,4.79,6,4.69,10.51-.27,12.41-.12,24.83-.11,37.24,0,4.55-2.18,7.41-6.72,7.29-4.3-.11-6.26-3-6.25-7.3,0-13.2.14-26.4-.07-39.6-.06-3.91,2.26-5.92,4.68-8.14Z"/><path class="cls-1" d="M253.38,452c13.23,0,26.48.3,39.71-.09,10.83-.31,16.86-6.3,17.11-17.28.23-10.24-.11-20.49.13-30.73.09-4-1-5.68-5.25-5.44-6,.32-12,.11-18,.05-4.15,0-7.08-1.78-7.27-6.3s2.61-7.24,6.73-6.61c15.94,2.42,26.91-1.27,31.08-19.14,1.9-8.11,10-13.39,16.94-18.53,49.83-37.16,69.28-100.45,48.59-157.86C362.4,132.3,307,95.65,244.87,98.92A132.56,132.56,0,0,0,181.6,119c-4.14,2.55-8.58,4.86-11.95-.35-3.68-5.69,1-8.51,5.11-11.07C268,50,391.91,110.21,403.31,219.19c6,57.19-14.78,103.74-60.27,138.83-13,10-19.9,22-19.37,38.62.47,14.62.15,29.3-.77,43.89A23.4,23.4,0,0,1,309,460.67c-7.15,3.24-11.3,8.25-15.62,14.39-21.19,30.11-66.82,26.71-84.19-6a11,11,0,0,0-6.36-5.63c-13.22-5-19.83-15.08-20.16-29.05-.28-12.28-.57-24.61.06-36.87.91-17.41-6.25-29.86-20.12-40.09C88.87,303.08,81.14,195,146,130.31c3.48-3.47,7.24-5.92,11.37-1.85s1.34,7.91-2,11.33c-59.7,61.54-52.28,156.55,16.4,208,11.7,8.77,20.22,19.35,23.11,33.84.76,3.82,3.15,3.72,5.88,3.72q27.18,0,54.36,0c4.59,0,9.06.66,9,6.44s-4.4,6.75-9.28,6.73c-18-.07-35.93.06-53.9-.09-3.66,0-5,1.05-4.89,4.83.22,10.55-.14,21.12.14,31.67.29,10.77,6.37,16.62,16.95,16.94C226.58,452.26,240,452,253.38,452Zm.24,13.37c-9,0-17.91,0-26.86,0a12.42,12.42,0,0,0-3.06.82,15.2,15.2,0,0,0,1.35,2.88c12.89,17.46,42.62,17.59,56.1.26a15.08,15.08,0,0,0,1.48-3.23,18.11,18.11,0,0,0-3.56-.76C270.58,465.28,262.1,465.31,253.62,465.33Z"/><path class="cls-1" d="M310.28,332.9c-4.87-3.59-10-7.39-15.16-11.17-4.86-3.57-18.44,1.78-18.44,7.72,0,15.84-5.9,21.74-23.09,21.55-16.58-.18-24.1-4.4-23.84-21.23.1-6.33-14.12-12.37-18.45-7.82-11.88,12.5-20.37,10-32.14-1.92-11.26-11.42-12.8-19.29-1.52-30.48,5.41-5.36-.66-19.51-8.3-19.4-15.78.21-22.46-6.55-19.46-22.29a9.15,9.15,0,0,0,0-3.3c-2.82-14.76,4-20.82,18.23-20.53,2.94.06,6.84.47,7.75-3.68,1.22-5.55,8.14-10.69,1.26-16.94-11.28-10.24-10.6-19.64,1.93-28.46a44.44,44.44,0,0,0,8.37-8.3c4.88-5.94,9.31-5.31,15.36-1.12,4.83,3.34,7.78,10,16.65,7.59,11.71-3.18,11.32-11.75,12.14-20.21.64-6.62,3.64-9.71,10.35-9.22,2.82.21,5.67,0,8.51,0,26.45.25,22.3-3.26,26.21,21.9.71,4.58,13.93,9.87,17.81,7.18,18.09-12.54,17.43-11.79,33.83,2.7,10.9,9.62,12,17.4,1.64,27.34-2.21,2.13-5.56,4.67-3,8.91,3.05,5.09,2.64,13,12,12.49,13.4-.69,20.35,5.16,17.62,19.51a18.25,18.25,0,0,0,0,6.59c2.75,14.45-4.4,19.61-17.73,19.63-3,0-7.16-.65-8.26,3.68-1.44,5.66-8.06,11-1,17.33,11,9.92,10.28,19.08-1.87,27.73C321.93,322.84,318.54,330,310.28,332.9ZM195.38,207.17c-.17,14.17-13.57,28.86-27.4,30.38-4.91.53-5.64,3.26-4.7,6.62,1.17,4.15-4.34,10.71,4.75,12.32,6,1.05,13.38-.85,17.6,4.94,9.69,13.27,9.36,26.39.21,39.82-4.54,6.64,3.66,7.53,5.74,11.15,1.44,2.5,3.55,5,7.55,2,4.81-3.64,8.86-9.48,15.27-9.7,12.44-.42,28.19,13.73,29,26,.49,7.57,5.28,6.25,9.83,6.26s9.41,1.26,9.88-6.27c.34-5.41-.72-11.95,4.2-15.93a31.52,31.52,0,0,1,39.63-.63c4,3.07,6.31,1.18,7.93-1.7,2.08-3.7,10.33-4.36,5.6-11.63-3.42-5.25-10.28-9-9.18-16.36,2.47-16.44,11.56-25.39,27.55-28.11,8.56-1.46,3.18-8,4.33-12.13.94-3.36.14-6-4.66-6.73-5.88-.95-13,.74-17.38-4.41-9.41-10.94-9.69-28-.71-39.7,4.31-5.63-1-7.3-3.48-9.58s-4-8.39-9.93-3.91c-4.79,3.61-8.8,9.64-15.35,9.42-13.61-.45-27.28-13.35-28.73-26.79-.82-7.66-6.18-5-10.16-5.18s-8.56-1.79-9.29,5.13c-.61,5.75.76,12.67-4.38,16.85-11.75,9.56-27.56,9.71-39.67.65-6.42-4.81-7.58,2.24-10.58,4.48-2.58,1.93-6.84,4-2.85,8.93C189.64,197.89,194.29,202,195.38,207.17Z"/><path class="cls-1" d="M131,116.76a18.83,18.83,0,0,1-4.29-2.7c-9.1-8.91-18.06-18-27.08-27-3.13-3.12-4.73-6.61-1.21-10.28,3.67-3.83,7.33-2.41,10.64.9q13.67,13.66,27.36,27.33c2.36,2.35,3.25,5,2,8.14C137.36,115.77,135.23,117,131,116.76Z"/><path class="cls-1" d="M409.92,82.51A26.76,26.76,0,0,1,406.8,87c-8.94,9.08-18,18-27,27.05-3.19,3.19-6.91,4.36-10.37,1s-2.36-7.1.87-10.31Q384.17,91,398,77.12c2.31-2.3,5-3.34,8.12-1.77C408.56,76.57,409.87,78.63,409.92,82.51Z"/><path class="cls-1" d="M61.79,237.73c-6.77,0-13.54.06-20.31,0-4.29-.06-7.07-2.47-7.09-6.63,0-4,2.67-6.41,6.73-6.44q20.55-.15,41.09,0c4.26,0,7,2.56,6.83,6.8s-3.15,6.3-7.41,6.31Q71.72,237.75,61.79,237.73Z"/><path class="cls-1" d="M444.68,237.73H424.83c-4.26,0-7.21-2.1-7.47-6.26s2.52-6.8,6.77-6.84q20.55-.18,41.09,0c4.27,0,7,2.61,6.76,6.85s-3.21,6.26-7.46,6.25Z"/><path class="cls-1" d="M185.84,50.92c7.56,2.18,7,10.11,9.88,15.61,1.78,3.38,3,7.2-.3,10.5-2.24,2.25-5.61,3.08-7.66.79a33.33,33.33,0,0,1-8.67-22.15C179,52.7,182.21,51.23,185.84,50.92Z"/><path class="cls-1" d="M309.05,70.75c4.53-5.52,1.47-17.07,12.46-19.48,3.75-.82,7.28,2.93,5.95,6.58-2.78,7.61-1.7,18.15-12.23,20.8C311.42,79.6,309.14,76.11,309.05,70.75Z"/><path class="cls-1" d="M93,175.5c-5.52-4.61-16.89-1.48-19.24-12.33-.84-3.9,2.67-7.37,6.38-6,7.46,2.67,17.81,1.54,20.42,11.92C101.52,172.94,98.05,175.09,93,175.5Z"/><path class="cls-1" d="M432.84,163.19c.07,5.71-4.55,6.86-8.48,8-5.5,1.57-10.77,7.42-17,2.05-2.39-2.06-2.9-5.71-.64-7.66a32.69,32.69,0,0,1,21.78-8.29C431.31,157.28,432.83,160.15,432.84,163.19Z"/><path class="cls-1" d="M298.51,247.4a45.3,45.3,0,1,1-45.26-46A45.43,45.43,0,0,1,298.51,247.4ZM253.23,279a32,32,0,1,0-32.31-32A32.15,32.15,0,0,0,253.23,279Z"/></svg>