<svg id="Camada_1" data-name="Camada 1" xmlns="http://www.w3.org/2000/svg" viewBox="0 0 512 512"><defs><style>.cls-1{fill:#043242;}</style></defs><title>target</title><path class="cls-1" d="M30,254.72C32.66,207.11,45.89,163.14,74,124,130.32,45.45,230.57,9.63,323.43,35.13c9.36,2.57,17.3,6.78,14.54,18-2.91,11.73-12.09,11.66-21.89,9C202.32,31.7,86.79,102.75,62.69,217.92,38.85,331.88,116.11,443,231.76,461.16S454.4,395.7,465.92,278.42a199.46,199.46,0,0,0-6.28-73.37c-2.65-9.56-1.87-18.31,9.24-21,10.52-2.59,15.11,4.43,17.7,13.67,40,142.4-65.51,287.74-213,293.29-2.71.1-5.39.68-8.08,1H260c-2.24-.34-4.46-.86-6.72-1C176.44,487,116,453,71.48,390.75,44.6,353.17,32.81,310.36,30,264.72Z"/><path class="cls-1" d="M423.92,258.85c-1.56,92.77-80.95,167.23-171.77,160C159,411.36,90.8,327.9,104.33,238c14.18-94.28,102.5-155.42,194.27-134.55,9.87,2.24,18.81,6.08,15.94,18.12-3,12.63-12.94,11.28-23.08,9C215.16,113.77,142.3,165.15,131.76,243,121.57,318.34,179,386.3,256.88,391.21,331.13,395.89,395.94,333,394.59,257,394.4,246,391.74,235.1,390,224.2c-1.29-8.26,1.65-14.37,9.62-16.65,8.21-2.36,15,1.14,16.95,9.41C419.76,230.76,421.56,244.87,423.92,258.85Z"/><path class="cls-1" d="M495,113.4c-1.61,2.46-3.9,6.4-6.59,10C457.5,165.31,417.28,187.81,364,184c-3.78-.28-8.7,2.66-11.66,5.56-26.14,25.68-52,51.67-77.87,77.62-6.77,6.79-14.28,8.88-21.44,1.61-7-7.07-4.93-14.49,1.72-21.12,19.86-19.77,38.46-41,59.8-59C333.9,172.3,342.07,153,341.2,128.75c-1-28.37,7.54-52.07,31.35-69.59,9.17-6.75,16.53-16,24.56-24.22,5.23-5.38,10.8-9.69,18.77-6.59s9,10.21,9.31,17.61c.23,5.29,1.69,10.68,1,15.83-5.59,44.33,28.6,31.21,50.63,34.85C486.31,98.21,493.75,100.29,495,113.4ZM370.12,155.34c26-4.6,54.33,2.31,71.29-24.24a92.33,92.33,0,0,1,5.72-7.31c-3.29-.7-6.65-2.25-9.85-2-26.67,2.43-39.89-8.51-37-36.2a25,25,0,0,0-.58-6.76,21.1,21.1,0,0,0-1.5-4c-1.25.75-2.52,1.47-3.75,2.24-28.31,17.67-24.55,47.19-27.23,74.25C367.09,152.72,369.32,154.3,370.12,155.34Z"/><path class="cls-1" d="M263.85,200.7c-32.4-.08-59.17,24.87-59.66,55.63-.53,33.08,23.63,60.43,54.26,61.45,34.89,1.16,61.18-22.51,62.87-56.52.48-9.47,4.84-16.24,15-15.57S350,253.45,349.2,263C345,311.55,307,347.63,261.89,346,213.59,344.3,176.48,307,176,259.53c-.52-46.28,35.65-83.71,84.52-86.71,10.16-.62,22.88-1.64,23.6,13.59C284.72,200,274.42,201.28,263.85,200.7Z"/></svg>