<svg id="Camada_1" data-name="Camada 1" xmlns="http://www.w3.org/2000/svg" viewBox="0 0 512 512"><defs><style>.cls-1{fill:#043242;}</style></defs><title>cable</title><path class="cls-1" d="M400.33,375.12c9.79-19.3,15.48-37.81,15.79-57.17.72-44.46.23-88.95.23-133.69-24.15-12.66-32.62-33.58-31.26-59.84.55-10.61.09-21.26.09-31.89s1.71-12.27,12.11-12.47c1,0,1.93-.12,3.59-.24,0-7.2,0-14.34,0-21.47C401,42.71,410.68,33,426.37,33c9.48,0,19-.08,28.46,0,14.09.16,24,10.07,24.21,24.17.1,7.48,0,14.95,0,22.33,15.7,2.46,15.7,2.46,15.7,18.24,0,10.79-.18,21.59,0,32.38.52,24.37-9.66,42.51-31.44,54.38,0,9.51.09,19.15,0,28.78-.43,36.46,2.22,73-1,109.36-6.72,74.79-45,128.86-111.91,162.34-35.56,17.78-73.85,21.19-112.85,17.94C171.7,497.42,120.88,466.36,85.19,411,64.65,379.17,55.47,343.73,55.42,305.9c-.05-40.39,0-80.78,0-121.49-14.08-7.34-24-18.24-28.92-33.55-3-9.4-2.47-19.05-2.48-28.68q0-15,0-29.93c0-10.14,1.8-12,11.9-12.19,1.1,0,2.2-.15,3.81-.26,0-7.59-.06-14.91,0-22.22.13-14.67,10-24.51,24.77-24.61,9.81-.06,19.63-.11,29.44,0,13.79.19,23.7,10.12,23.92,23.95.13,7.49,0,15,0,22.22.69.43,1,.72,1.22.73,14.33,1,14.49,1.18,14.49,15.66,0,11.61-.18,23.22,0,34.83.44,24.18-9.69,42.17-31.44,54.1V307.74A146.47,146.47,0,0,0,115.55,369c.54,1.19,1.11,2.36,1.73,3.51.1.19.55.2,1.12.38-1.93-45.8,13-84.86,47.21-115.62,27.85-25.06,61-36.89,98.44-35.72C344.35,224.1,406.35,293.25,400.33,375.12ZM259.52,268.19A94.3,94.3,0,0,0,165,362.53c-.13,51.68,42,94.23,93.49,94.41,52.3.18,95.06-41.63,95.27-93.13C354,310.7,312.21,268.33,259.52,268.19ZM71,189.43c-.08,1.79-.2,3.24-.2,4.69q0,57.66,0,115.31A171.24,171.24,0,0,0,78,358.24C102.57,441.11,182.36,499.1,277.71,487,344.82,478.4,391.84,416,384.3,348.27c-7.81-70.1-73.61-121-142.63-110.27C170.08,249.12,124,314.1,135.32,385.63c4.26,26.79,22.49,39.46,42.91,51.45a7.12,7.12,0,0,0-1.7-2.88c-28.19-34.79-35.31-73.52-17.83-114.74,17.39-41,49.82-63.41,94.36-66.83,47.26-3.64,91.62,25,109,69.34a110.32,110.32,0,0,1-32.84,125.52C298.4,472.64,262.63,476.25,225.31,470,144.07,456.45,87,388.43,86.83,306c-.08-37,0-73.93,0-110.9v-5.66ZM39.38,95.66c0,13.64-.11,26.71,0,39.78.19,19.27,14,35.06,33.41,38.46,18.06,3.16,37.33-7.85,43-25.8,5.41-17.13,1.23-34.91,2.55-52.44Zm361.18,0c0,13.62-.12,26.83,0,40a39.48,39.48,0,0,0,34.62,38.41c19.45,2.41,38.86-10.38,42.85-29.5,3.34-16.06.7-32.47,1.38-48.95ZM432,189.43v5.8q0,55.43,0,110.84c0,24.17-3.91,47.8-15,69.31-14.83,28.86-33.83,55.22-52.73,81.56-1,1.45-2.35,2.72-5.07,5.83,3-1.58,3.89-1.95,4.67-2.46C417,425,445.66,375.44,447.73,311.66,449,272.47,448,233.2,448,194c0-1.56-.15-3.11-.22-4.54ZM55.11,79.73h47.35c0-8.29.27-16.27-.11-24.21-.21-4.49-3.32-7.08-7.86-7.14q-15.66-.2-31.34,0c-4.77.07-7.8,2.79-8,7.56C54.9,63.74,55.11,71.56,55.11,79.73Zm361.17,0h47.36c0-8.3.27-16.28-.11-24.23-.21-4.48-3.33-7.07-7.87-7.12-10.45-.13-20.9-.15-31.35,0-4.76.07-7.78,2.81-7.95,7.58C416.08,63.75,416.28,71.57,416.28,79.73Z"/></svg>