<svg id="Camada_1" data-name="Camada 1" xmlns="http://www.w3.org/2000/svg" viewBox="0 0 512 512"><defs><style>.cls-1{fill:#043242;}</style></defs><title>conduit</title><path class="cls-1" d="M194.13,364.79c38.29.46,67.7,31.51,67,70.48,0,1.45.18,2.9.27,4.36a25.48,25.48,0,0,0,3.79-2.62q71.57-71.47,143.05-143c3.86-3.86,8-7.73,13-2.56s1.1,9.23-2.75,13.08q-88.11,88-176.15,176.14c-13.56,13.58-29.76,20.74-48.9,21.34-5.08.16-9.28-1.41-9.47-7.09-.19-6,4-7.57,9.35-7.66,25.93-.45,47.15-18.41,52.37-44.1,4.91-24.23-8.38-49.37-31.5-59.56A54,54,0,0,0,152,468.85c3.66,4.15,7.07,8.54,1.63,13.18s-9.38.41-12.91-3.66c-23.62-27.22-22.75-67.54,2.62-93.19,38.54-39,77.46-77.56,116.18-116.34,3.64-3.65,7.63-5.36,11.66-1.26s2.31,8.1-1.32,11.72q-39.31,39.26-78.56,78.58c-1.93,1.93-3.6,4.13-5.39,6.21Z"/><path class="cls-1" d="M85.48,256.16c38.3.45,67.57,31.38,67,70.47a28.31,28.31,0,0,0,.68,4.62c1.12-.95,2.32-1.82,3.36-2.86q71.54-71.5,143-143c3.86-3.86,8-7.74,13-2.58s1.14,9.22-2.71,13.08q-87.94,87.85-175.8,175.81c-13.4,13.44-29.31,20.8-48.26,21.67-5.31.24-10.22-.78-10.49-7.08s4.34-7.58,9.81-7.67c25.5-.45,46.71-18.54,51.9-44.05,4.93-24.25-8.3-49.35-31.42-59.59a54.06,54.06,0,0,0-62.32,85.21c3.66,4.13,7.17,8.49,1.77,13.18s-9.37.57-12.93-3.53C8.35,342.41,9.34,302.13,35,276.22c38.44-38.83,77.23-77.31,115.84-116,3.62-3.63,7.62-5.47,11.64-1.35,4.18,4.27,2.17,8.37-1.57,12.1Q121.76,210,82.7,249.2c-1.94,1.94-3.61,4.14-5.41,6.23Z"/><path class="cls-1" d="M495,200.93a67.07,67.07,0,0,1-18.94,45.83c-9.2,9.57-18.67,18.88-28.11,28.23-5.65,5.6-6.26-2.31-9.17-3.8-2.48-1.26-4.79-3.34-1.13-6.77,8.58-8.07,16.76-16.57,25.07-24.93,22.82-23,23.48-56.57,1.57-78.33s-55.27-20.95-78,1.7q-45.12,45-90.13,90.16c-3.74,3.75-7.82,6.59-12.41,2.24-4.94-4.67-1.86-8.82,2-12.69,30.8-30.7,61.41-61.6,92.34-92.18a68.08,68.08,0,0,1,74.65-14.27C478.4,147,495,171.84,495,200.93Z"/><path class="cls-1" d="M386.33,90.71c-.39,17.58-5.83,33.33-17.92,46.26-9.52,10.18-19.34,20.12-29.55,29.6-5.58,5.17-6.15-3.28-9.45-4.7-2.25-1-3.72-2.89-.81-5.68,9-8.61,17.75-17.46,26.46-26.36,21.88-22.37,22.1-55.84.61-77.33-21.25-21.24-54.83-21.14-76.92.7Q233.57,97.84,189,143.08c-3.87,3.91-5.84,2.26-7.87-.86-1.82-2.8-8.69-3.82-2.77-9.66,30.61-30.21,60.77-60.87,91.39-91.07a67.84,67.84,0,0,1,74.73-13.86A68.84,68.84,0,0,1,386.33,90.71Z"/><path class="cls-1" d="M121.86,325.19a38,38,0,0,1-39.2,37.33c-21.06-.6-37.42-18.28-36.77-39.75.61-20.25,18.45-37,38.7-36.31C105.93,287.18,122.41,304.3,121.86,325.19Zm-61.29-.73A23.05,23.05,0,0,0,84,347.71a23.35,23.35,0,0,0,23.3-23C107.49,312,96.79,301.13,84,301A23.46,23.46,0,0,0,60.57,324.46Z"/><path class="cls-1" d="M230.5,433.78a38,38,0,0,1-39.12,37.39C170.61,470.7,154,453.1,154.52,432c.46-20.59,18.11-37.43,38.66-36.88C214.41,395.68,231,412.88,230.5,433.78Zm-61.29-.71a23.11,23.11,0,0,0,23.43,23.3,23.36,23.36,0,0,0,23.34-23,23.39,23.39,0,1,0-46.77-.29Z"/><path class="cls-1" d="M144.11,239.25c-3.45.09-5.83-1.3-7.05-4.16-1.57-3.69-.15-6.65,2.57-9.36q25.43-25.3,50.74-50.71,22-22,44-44.06c3.73-3.76,7.85-5.69,12.07-1.45,4,4.06,2.14,8.05-1.47,11.66q-47.25,47.16-94.42,94.39C148.67,237.45,146.82,239.42,144.11,239.25Z"/><path class="cls-1" d="M357.31,242.79a9.7,9.7,0,0,1-3.33,6.67Q306.4,297,258.88,344.57c-3.68,3.68-7.77,5.16-11.71,1.15S245,337.64,248.63,334q47.42-47.34,94.75-94.77c2.71-2.72,5.63-4.17,9.35-2.83C355.68,237.49,356.93,240,357.31,242.79Z"/><path class="cls-1" d="M300.25,67.38c3.87.05,6.18,1.37,7.53,4.22a6.54,6.54,0,0,1-1.25,7.84c-10,10.17-20.09,20.3-30.32,30.26-3,2.94-6.77,2.81-9.84-.12s-3.43-6.78-.51-9.81c10-10.38,20.31-20.53,30.61-30.66C297.56,68.05,299.4,67.75,300.25,67.38Z"/><path class="cls-1" d="M408.82,176.07c3.94,0,6.23,1.33,7.6,4.16a6.5,6.5,0,0,1-1.22,7.84c-10,10.17-20.08,20.3-30.31,30.27-3,2.93-6.77,2.83-9.85-.08s-3.47-6.76-.54-9.8c10-10.38,20.31-20.54,30.6-30.66C406.19,176.73,408,176.43,408.82,176.07Z"/></svg>