<svg id="Camada_1" data-name="Camada 1" xmlns="http://www.w3.org/2000/svg" viewBox="0 0 512 512"><defs><style>.cls-1{fill:#043242;}</style></defs><title>steel</title><path class="cls-1" d="M229.46,16h253.1c5.55,2.47,6.3,7.13,7.19,12.69,5.21,32.22-6,56.17-31.21,77.2s-47.12,46.39-70.7,69.6c-4,4-4.82,7.75-3,12.75,5.07,14.17,14.75,23.39,29.82,24.7,14.21,1.24,28.57.7,42.87.92,36.11.56,32.1-5.52,31.86,32.13-.06,9.76,4,20.7-4.15,29.21Q385.45,379.13,285.55,482.9a17.36,17.36,0,0,1-13.45,5.76q-121.19-.12-242.38,0c-5.78,0-10.26-1.49-12.72-7.06v-48c2.65-3.36,5-7,8-10q45.08-45.3,90.3-90.45c1.78-1.79,3.88-4,4.35-6.26C124,305.16,107.18,284.09,85,283.67c-18.45-.36-36.92-.23-55.37-.05-5.8.06-10.25-1.49-12.66-7.09v-48c2.67-3.34,5.05-7,8.05-10q97.14-97.3,194.43-194.44C222.49,21.09,226.12,18.71,229.46,16ZM159.65,221.48c36.18,0,72.35,0,108.52.06a13.16,13.16,0,0,0,10.21-4.11Q368.56,127.06,458.86,36.8a28.2,28.2,0,0,0,3-4.39,26.62,26.62,0,0,0-5.15-1q-109.22-.07-218.41-.1a12.24,12.24,0,0,0-9.42,3.76Q138.38,125.76,47.75,216.35a24.18,24.18,0,0,0-2.68,4.06,22.38,22.38,0,0,0,4.69,1Q104.71,221.52,159.65,221.48ZM182,354.64c0,11.85-.16,23.71,0,35.56.22,12.88,5,24.35,16.54,30.14,24,12.12,50.12,4.56,75.33,5.44,1,0,2.23-1.53,3.18-2.51Q368.57,328,460,232.66a14.93,14.93,0,0,0,1.85-3.42,16.23,16.23,0,0,0-3.83-1c-11.39-.09-22.79-.25-34.17,0-23.77.43-41.27-9.3-51.37-31.21-1.95-4.24-3.74-2.19-5.71-.21-13.5,13.49-28.71,25.69-40.16,40.74-27.81,36.54-62.09,55.16-108.7,46a2.36,2.36,0,0,0-.46,0,35.85,35.85,0,0,0-35.32,35C181.78,330.62,182,342.63,182,354.64Zm-31.37,119c31.86,0,63.81-1.45,95.54.53,19.84,1.23,26.8-4.08,23.82-24-1.08-7.27-2.43-9.71-9.81-9.49-14.91.46-29.86.38-44.77-.06-25.74-.76-46.94-21.54-47.55-47.32s-.57-51.4,0-77.09c.51-23,18.69-43.41,41.46-46.39,11.67-1.53,23.87-2.54,35.42-.88,20.94,3,28.77-4.06,25.16-25.14-1-5.92-2.27-7.62-8.13-7.6-68.49.17-137,1.09-205.45-.49-20.55-.47-27.59,4.57-24.33,24.8,1,6.18,2,8.44,8.49,8.21,13.37-.46,26.77-.29,40.16-.09,30.82.45,51.54,18.25,53.56,48.89a563.21,563.21,0,0,1-.11,75.64C132,423.3,111.36,440.7,81.17,440.88c-11.08.07-22.26,1-33.21-.22-13-1.41-15.88,3.09-16.23,15.9-.39,14.51,3.55,18,17.81,17.49C83.21,472.85,116.94,473.67,150.64,473.67ZM475.13,56.54q-.79-6.23-1.6-12.45c-3.21,2.75-6.61,5.31-9.6,8.3C408.38,107.86,353.1,163.6,297.16,218.67c-9.32,9.17-14.94,18.16-12.64,31.23.35,2,.75,4,1.13,6a41.27,41.27,0,0,0,5-3.72q87.88-87.78,175.8-175.54C472.33,70.86,476.66,65.24,475.13,56.54Zm.28,201.08c-.81-8.38-1.21-12.44-1.6-16.51-3.23,2.69-6.74,5.09-9.63,8.09-56,58.28-111.73,116.8-168,174.77-8.61,8.86-13.71,17.63-11.63,29.95.35,2,.67,4.09,1,6.13,1.68-1.2,3.59-2.16,5-3.62q87.8-91.12,175.63-182.2C472.09,268.08,476.76,262.34,475.41,257.62ZM119.91,374.67c0-5.38.11-10.77,0-16.15a53.54,53.54,0,0,0-1.1-6.94,49,49,0,0,0-5.34,4.09q-29.61,29.46-59.07,59.06c-3.31,3.32-6.24,7-9.34,10.55,4.77.42,9.54,1.18,14.31,1.18C111.09,426.55,119.91,419,119.91,374.67Z"/><path class="cls-1" d="M333.23,277.23c-5.48-.55-8.81-3.36-7.78-7.26,1.94-7.37,6.94-13.22,14.67-14.9a5.8,5.8,0,0,1,6.88,6.77C345.46,269.77,339.33,274.16,333.23,277.23Z"/><path class="cls-1" d="M301.56,310.43c-5-.84-8.62-3.4-7.59-7.35,2-7.52,7-13.42,15-14.84a5.67,5.67,0,0,1,6.49,6.65C313.94,302.82,307.8,307.18,301.56,310.43Z"/><path class="cls-1" d="M252.74,362c-3.33,5.82-6.88,12.58-15.18,13.87a5.55,5.55,0,0,1-6.55-6.49,18.94,18.94,0,0,1,14.6-15.24C249.59,353.16,252.15,356.68,252.74,362Z"/><path class="cls-1" d="M275.89,321.12c5.55.23,8.89,2.9,8,6.91-1.72,7.53-6.85,13.22-14.53,14.94a5.78,5.78,0,0,1-6.84-6.78C264,328.5,269.82,324,275.89,321.12Z"/><path class="cls-1" d="M363.75,230c4.28.52,6.87,2.85,6.9,7.16,0,4.15-2.36,6.59-6.57,6.72-4.45.13-7-2.42-7.16-6.67S359.63,230.65,363.75,230Z"/><path class="cls-1" d="M214.16,400.91c-4.43-.38-7-2.79-6.94-7s2.76-6.91,7-6.84c4.09.05,6.44,2.68,6.52,6.78C220.87,398.2,218.38,400.48,214.16,400.91Z"/></svg>